<?xml version="1.0" encoding="UTF-8"?>
<svg id="Capa_1" data-name="Capa 1" xmlns="http://www.w3.org/2000/svg" xmlns:xlink="http://www.w3.org/1999/xlink" viewBox="0 0 2235.19 279.46">
  <defs>
    <style>
      .cls-1 {
        fill: url(#Nueva_muestra_de_degradado_2);
      }
    </style>
    <linearGradient id="Nueva_muestra_de_degradado_2" data-name="Nueva muestra de degradado 2" x1="29.88" y1="136.12" x2="2211.4" y2="136.12" gradientUnits="userSpaceOnUse">
      <stop offset="0" stop-color="#d84565"/>
      <stop offset=".2" stop-color="#b25a81"/>
      <stop offset=".43" stop-color="#8f6d9d"/>
      <stop offset=".64" stop-color="#757cb0"/>
      <stop offset=".84" stop-color="#6684bc"/>
      <stop offset=".99" stop-color="#6188c1"/>
    </linearGradient>
  </defs>
  <path class="cls-1" d="M1696.04,177.53l4.57,10.8c5.11-.26,12.58-8.12,11.96-12.65l-8.34-4.15,8.85-10.82,4.53,5.96,1.95,2.88c.35.51,2.95,0,3.25-.53l5.91-10.38c.91-1.6-1.85-4.43-3.42-4.59l-7.76-.81c1.42-5.06,3.76-6.8,7.65-9.3l60.11-38.75-15.12-68.09c-1.62-.7-3.55-.91-5.24-.61l-59.03,31.43,11,75.74-3.87,6.31c-3.08-3.87-4.69-5.8-7.8-8.38-4.45,3.76-7.33,7.64-7.25,13.84l11.45,1.99-8.7,10.12c-3.15-4.05-4.66-6.14-7.38-8.36-4.95,2.53-7.82,6.62-9.75,10.81l5.61,8.82,6.82-1.3ZM1725.63,137.34l20.78-47.24,30.47,14.1-51.25,33.14ZM1766.69,46.71l11.29,51.86-28.92-13.63,17.63-38.23ZM1762.75,43.82l-18.43,39.18-29.49-13.6,47.92-25.58ZM1712.15,74.17l30,13.9-21.09,46.31-8.9-60.21ZM1894.37,80.42l5.41-11.81c.35-.77,3.28-1.24,3.77-.57.49.67.85,2.57.49,3.41l-4.49,10.52c-.48,1.13-2.77,2.39-3.72,2.16-.95-.23-1.88-2.79-1.46-3.72ZM1905.49,142.79l6.58,10.63c.28.45.09,2.14-.07,2.68-.2.72-3.37,1.32-3.83.59l-7.25-11.31c-.48-.75.1-3.21.74-3.8.76-.71,3.15.1,3.83,1.2ZM1861.05,72.83c-.59-1.3-.6-3.08.02-3.91.62-.83,3.89-.26,4.33.73l4.98,11.2c.36.81-.25,3.46-.88,3.89-.79.54-3.2-.31-3.6-1.2l-4.85-10.7ZM1832.16,120.85c-.32-.73,2.02-2.06,2.87-2.19l11.52-1.64c.88-.13,2.77,1.01,3.17,1.71.4.69-.74,3.15-1.57,3.27l-14.59,2.07-1.4-3.21ZM1913.09,106.04c-.75-.66.35-3.34,1.38-3.66l11.78-3.7c1.06-.33,3.53.56,3.91,1.49.38.93-1.07,3.17-2.1,3.48l-11.19,3.33c-.87.26-3.19-.41-3.79-.94ZM1101.5,139.25c-.31-1.8-.56-5.42-1.57-6.76-1.92-2.56-10.52-2.8-12.81-.18-.99,1.13-1.46,4.46-1.78,6.49-1.99.57-5.47,1.32-7.02,2.37-3.03,2.06-2.68,12.71.51,13.34l6.77,1.34c.03,1.83.15,5.8,1.29,7.18,2.55,3.1,13,2.03,13.68-.82l1.49-6.2c2.52-.52,5.74-1.04,7.14-1.71,2.19-1.05,2.55-11.06-.28-13.32-1.37-1.09-5.18-1.46-7.41-1.74ZM1101.59,150.35l-3.93.6c-2.29.35-.8,8.45-1.99,8.45h-4.07c-1.35-.01-.12-7.35-1.42-7.98-3.83-1.85-8.32-.49-8.31-1.85v-4.06c.02-1.23,6.35.25,7.85-1.43,2.14-2.4.34-8,1.95-7.96l3.64.1c.81.02.6,2.66.75,3.5l.76,4.11c.36,1.93,8.34.37,8.35,1.71l.02,3.98c0,.86-2.72.69-3.59.83ZM1165.01,144.81c1.4,2.89.13,6.52-2.7,7.99-2.62,1.36-6.59.36-7.91-2.55-1.21-2.67-.11-6.49,3.17-8.03,2.62-1.23,6.33.3,7.44,2.6ZM1177.4,158.18c.38,2.76-1.85,6.07-4.16,6.74-2.94.86-6.13-1.27-6.79-3.37-1.08-3.44.58-7.29,4.57-7.99,2.73-.48,6.04,2.1,6.38,4.61ZM1166.8,138.93c-1.72-2.19-1.27-6.17,2.04-7.97,2.9-1.58,6.43-.57,8.16,2.74,1.04,2,.22,5.16-2.75,7.18-2.08,1.42-5.31.79-7.46-1.95ZM1188.8,145.74c.97,3.28-.7,6.51-3.59,7.47-2.77.92-6.23-.88-7.16-3.86-.79-2.54.84-6.34,4.15-7.07,2.62-.57,6.03,1.53,6.6,3.45ZM1139.75,156.75c.67.51-1.13,3.68-2.1,3.71l-9.54.38c-.98.04-3.02-1.95-2.89-2.9.13-.96,1.87-2.64,2.84-2.64l8.42.02c.86,0,2.59.91,3.26,1.42ZM1308.32,98.04h-60.27c-1.85,0-4.71,2.7-4.7,4.56l.07,49.55c0,3.57,3.25,5.22,6.35,5.21l56.76-.13c2.93,0,5.42-2.61,5.65-5.39l.13-49.92c-.3-1.39-2.58-3.88-4-3.88ZM1305.95,151.17l-56.46.05-.02-46.92,56.53-.08-.05,46.95ZM1269.32,190.06l-8.85.61-.45,8.05c-.08,1.43-4.06,2.11-5.28,1.36-1.22-.75-1.97-3.75-2-5.45l-.07-3.63c-.02-1.22-7.85.47-8.58-1.6-.36-1.02-.37-3.21-.17-4.47.21-1.28,3.1-1.86,4.62-1.87l3.76-.02c1.22,0-.9-5.36,1.84-9.36.82-1.2,5.55-.97,5.7.48l.94,8.74,8.67.42-.12,6.75ZM1294.42,197.15c2.53,4.44.42,9.95-4.93,11.94-4.4,1.63-7.97-1.59-9.21-4.61-1.67-4.08.06-8.05,3.23-9.96,3.7-2.23,8.62-1.38,10.92,2.64ZM1299.52,177.59c-4.84,2.7-5.56,8.4-3.24,12.06,2.49,3.94,7.01,5.14,11.03,2.96,4.11-2.22,5.69-7.27,3.57-11.41-1.92-3.75-6.93-6.09-11.36-3.62ZM1304.43,187.97c-.98.55-3.58-.5-3.95-1.56-.36-1.06,1.13-3.66,2.26-4.06.88-.31,3.17.97,3.36,1.89.23,1.1-.68,3.18-1.67,3.74ZM1280.92,213.52c1.02,4.46-9.88,1.18-11.44,3.79l-3.93,6.59c-.75-.67-2.44-3.61-2.67-5.27-.82-5.92,16.7-11.01,18.05-5.11ZM1402.53,148.05c-.05-5.52-3.99-4.63-5.72-8.89-.48-1.18,1.03-4.11,2.16-4.81,3.87-2.4,10.12-2.5,12.88.96,3.01,3.78-.52,7.05-3.84,9.15-1.39.88-1.09,5.95.59,6.88,3.89,2.16,7.08-4.64,9.06-2.5.79.85.8,3.15.29,4.08-3.7,4.2-8.25,6-13.08,1.8-4.77,3.92-9.32,2.42-13.33-1.22-.62-1.14-1.28-2.81-.92-3.75.43-1.12,3.76-.77,4.74.02,1.28,1.03,3.02,2.04,4.13,2.05,1.1.02,3.04-2.6,3.02-3.78ZM1418.3,130.77c-1.88-2.05-1.77-5.46.91-7.25,2.08-1.39,5.89-.38,7.03,1.82.82,1.58.23,4.43-1.74,6.09-1.35,1.14-4.85.82-6.2-.66ZM1384.34,129.47c-1.14-2.4.03-6.05,3-6.94,2.41-.71,5.42,1.22,5.85,3.41.39,2.02-.95,5.13-3.11,6.07-1.64.71-4.96-.93-5.73-2.55ZM848.96,169.77c-.23-2.06-.07-6.99-1.86-7.31l-13.33-2.38-15.2,2.63.11,14.4c.05,6.5,5.83,10.05,10.61,13.09,3.46,2.2,5.63,1.69,9.23-.22,8.36-4.42,11.36-11.95,10.44-20.21ZM843.31,176.78c-.18,4.15-5.09,7.23-9.43,8.96-4.75-1.63-9.86-4.68-10.1-9.26l-.5-9.67,10.4-.9,10.05,1.18-.42,9.7ZM823.28,128.4c-.46-.76.02-3.24.66-3.75.8-.64,3.17.12,3.91,1.1,2.83,3.77,9.13,2.54,11.21-.45.5-.72,3.1-1.23,3.58-.64,2.17,2.7-2.43,8.82-9.79,8.85-3.21.01-7.85-2.31-9.57-5.12ZM813.33,116.09c-.85-1.31.37-4.7,2.55-5.66,2.44-1.08,5.12,1.06,5.52,3.11.31,1.6-1,4.38-3.19,5.2-1.46.55-3.75-.91-4.89-2.65ZM844.99,116.86c-1.33-1.92-.42-5.81,2.27-6.66,1.84-.58,4.91,1.06,5.3,2.74.4,1.73-.79,4.63-2.3,5.35-1.74.83-4.39-.16-5.27-1.43ZM829.81,91.66v-20.88c.01-1.02,1.47-3.3,2.3-3.8,1-.6,3.6,1.44,3.61,2.61l.12,21.57c0,1.23-1.87,3.45-2.85,3.37-.99-.08-3.18-1.79-3.18-2.87ZM843.85,92.27l-.14-16.31c0-1.18,1.62-3.2,2.63-3.32,1.33-.15,3.11,1.81,3.1,3.22l-.09,16.22c0,1.12-1.36,3.01-2.24,3.2-1.06.22-3.25-1.8-3.26-3.01ZM815.35,92.63l.03-16.64c0-1.2,1.97-3.56,3.04-3.56,1.07,0,2.85,2.31,2.85,3.44l.07,16.45c0,1.05-1.83,3.18-2.81,3.19-.98,0-3.19-1.77-3.19-2.89ZM801.82,94.33l-.02-11.05c0-1.03,1.39-2.91,2.29-3.27.9-.36,3.34,1.25,3.35,2.37l.12,12.82c0,1.02-2.54,2.74-3.4,2.34-.85-.41-2.35-2.21-2.35-3.21ZM857.65,94.53l.22-12.16c.02-.85,2.08-2.9,2.9-2.73,1.03.2,2.54,2.24,2.57,3.5l.25,11.13c.03,1.28-1.84,3.42-2.88,3.39-1.03-.02-3.08-2.04-3.06-3.14ZM407.11,140.77c-5.05-1.94-10.92.57-12.98,6.23-1.83,5.05,1.44,9.92,5.57,11.7,4.67,2.01,9.57.22,12.64-4.65,3.35-5.32-.11-11.32-5.23-13.28ZM405.45,153.43c-1.31.86-4.09,0-5.31-1.54-1.19-1.51-.56-4.44,1.8-5.81,1.2-.7,4.37.48,5.37,1.8.94,1.25-.16,4.44-1.86,5.55ZM435.16,141.29c-4.86-2.64-9.84-.71-12.48,2.84-3.13,4.22-2.31,9.62,1.38,12.71,3.47,2.9,8.29,3.87,12.63-.1,2.32-2.11,3.85-5.99,3.52-8.81-.29-2.44-2.69-5.37-5.06-6.65ZM431.59,153.41c-1.24.58-4.01-.82-4.92-2.22-.86-1.31.09-4,2.66-4.83,1.6-.51,4.94,1.11,5,2.47.06,1.41-1.49,3.99-2.73,4.57ZM455.5,140.21c-4.97.77-7.45,5.18-5.98,9.9-1.23,4.15,1.34,8.37,5.73,9,6.28.91,11.13-3.68,11.07-9.44-.06-5.75-4.53-10.44-10.81-9.46ZM459.88,151.91c-.78,1.41-3.59,2.47-5.91.88-2.17-1.49-2.33-4.36-1.11-5.51,1.47-1.39,4.59-1.78,6.3-.9,1.24.64,1.66,3.85.72,5.54ZM212.83,180.99c.33,1.85-3.22,3.99-4.83,4.11-2.02.15-6.07-.97-6.59-3.03-.79-3.15,2.57-5.05,4.76-5.27,2.16-.22,5.98.37,6.66,4.19ZM201.31,168.33c-.19-1.77,3.11-4.15,4.81-4.31,1.7-.16,5.97,1.29,6.38,2.97.92,3.79-2.53,5.37-4.49,5.58-2.63.29-6.31-.6-6.7-4.24ZM224.27,233.16c-1.63,2.06-4.6,2.94-6.31,1.93-1.95-1.15-2.56-4.59-1.16-6.88,1.27-2.08,4.72-3.22,6.35-2.35,2.33,1.25,3.13,4.77,1.13,7.3ZM244.16,218.33c-.28,2.42-1.21,4.87-2.05,5.77-.85.9-3.88,1.36-5.02.64-2.66-1.69-2.59-7.29.65-8.62l3.32-1.36c.96-.39,3.22,2.5,3.1,3.57ZM236.29,198.21c.92-1.26,3.78-2.8,5.25-2.1,2.7,1.28,2.78,4.43,1.83,6.51-.87,1.9-4.03,4.3-6.9,2.3-1.3-.9-1.2-5.3-.18-6.7ZM218.43,210.92c.33-1.05,1.37-3.4,2.18-3.27,1.02.16,2.91.73,3.9,1.17.95.41.47,3.65-.37,4.36-1.33,1.12-2.95,2.11-3.89,2.28-1.17.2-2.19-3.39-1.83-4.53ZM186.94,212.6c.8,2.19.46,5.63-2.32,6.87-2.32,1.04-5.44-1.09-6.18-2.72-1.11-2.44-.45-5.86,2.66-6.99,2.07-.76,5.24,1.18,5.84,2.84ZM174.61,205.52c-1.48.37-4.2-1.75-4.78-3.06-.7-1.6-.16-5.35,1.27-6.63,1.96-1.75,5.79.37,6.96,2.84,1.03,2.18.52,5.86-3.46,6.85ZM197.1,232.76c-.43,1.46-3.98,3.31-5.14,2.68-1.15-.63-2.72-2.51-3.43-3.91-.67-1.33,1.27-4.51,2.72-4.92,3.71-1.06,6.84,2.77,5.84,6.16ZM553.32,184.35c1,3.27-1.27,7.54-4.23,8.84-4.1,1.81-7.82-.21-9.67-4.38-1.21-2.73.32-7.48,4.43-9.19,4.39-1.83,8.34,1.02,9.48,4.73ZM548.22,207.94c1.56,3.32-.38,7.69-3.27,8.9-3.84,1.6-7.86.49-9.77-3.05-1.8-3.33-.44-7.84,3.94-9.72,3.49-1.49,7.61.7,9.1,3.87ZM1940.93,212.36l10.47,14.5,10.5-15-10.48-15.03-10.48,15.53ZM1951.61,218.82l-5.09-7.21,4.77-7.3,4.86,7.36-4.54,7.15ZM2077.89,167.28c9.92-4.59,15.86-13.31,19.74-23.06,4.67-11.75,3.14-26.48-7-34.93-9.74-8.12-24.05-6.17-33.3,2.14-16.96,15.25-20.73,44.29-3.41,55.01,7.4,4.58,16.01,4.53,23.96.84ZM2048.12,148.42c-3.12-14.66,8.65-38.53,27.46-39.36,9.4-.41,16.98,6.96,18.71,16.23,2.46,13.27-3.47,27.34-14.76,35.28-6.39,4.49-13.43,5.78-20.33,2.68-5.19-2.34-9.6-7.88-11.08-14.83ZM2171.3,144.09c-.53.38-2.33.52-2.67-.2-.34-.72-.3-3.19.16-3.96,1.93-3.2,8.27-4.86,12.03-2.19,1.29.92,1.1,6.11-.36,6.57l-4.68-3.68c-1.21-.96-4.06,1.5-4.48,3.46ZM2211.33,139.44c-3-2.03-6.12-3.4-9.22-4.61-1.08-5.31-6.41-7.81-11.84-5.93-1.1.38-3.82.98-4.29.16l-2.24-3.81c-3.16-2.68-10.87-2.45-13.88.31-.98,1.66-1.55,3.17-2.45,3.68-.91.51-3.79.23-4.98-.16-5.17-1.73-11.45.46-12.87,6.28-3.23.45-8.4,2.12-9.53,5.07l-.11,56.44c-2.74.86-8.38,1.24-9.88-.77-2.62-6.63-13.65-5.52-15.71-2.57l-2.59,3.72c-.83,1.19-11.77-2.94-15.22,2.3-1.75,2.65-2.79,4.24-5.94,4.81-2.65.48-6.47,2.81-6.52,5.33l-.24,12.55c-5.05.73-8.83-1.16-12.34-4.5-2.62-4.28-3.27-9.31-3.42-11.71.13-1.94-.33-4.04-1.16-6.21l-5.2-13.66c-.5-1.32,1.16-5.37,3.02-5.22,9.3.77,21.06-3.27,29.09-10.6,9.18-8.39,14.3-19.38,16.96-31.64,3.24-14.88-2.41-32.08-15.18-40.66-9.85-6.62-21.04-7.75-31.81-3.86-21.7,7.84-32.58,30.84-32.84,53.22-4.88.13-9.07,1.96-10.88,5.93-1.43,3.13-2.5,6.54-2.29,9.95l-11.18,9.53c-.18-.67-.4-1.35-.73-2.06-2.24-4.82-8.85-8-14.53-4.6-5.11,3.07-6.9,9.66-3.37,15.3l-15.8,12.27-14.29-26.02c4.66-5.01,5.33-11.72,1.05-16.14-4.38-4.53-11.21-3.91-14.76-.12-4.72,5.05-3.67,11.61.9,16.41l-14.41,25.98-15.98-12.63c1.59-3.29,1.94-8.01.6-10.97-1.09-2.41-4.49-5.39-8.14-5.56-6.65-.3-10.4,4.88-11.12,9.62-.78,5.21,2.65,9.41,8,11.38l1.32,11.49c-14.14.97-25.85,8.72-27.57,23.14-.44,3.64.32,7.39,1.94,10.49-31.56-3.07-31.84-14.21-31.02-17.97l15.52-38,13.45-32.16,5.97,7.38c.61.75,3.46,1.02,4.29.54.66-.38,1.94-1.97,2.13-2.91l3.3-15.96,14.83-4.68c1.41-.45,3.4-3.05,3.56-4.41.16-1.36-1.43-4.2-2.78-4.94l-12.69-7.04.05-15.39c0-1.47-1.71-4.27-3.06-4.81-1.35-.53-4.93.08-6.06,1.19l-10.4,10.25-13.65-4.73c-1.35-.47-4.19.02-5.4.73-1.27.74-2.46,4.15-1.81,5.54l7.09,15.27-8.23,11.9c-1.32,1.9-2,7.68,1.36,7.74l9.93.18-31.87,72.06c-1.66,3.76-1.57,6.92.16,10.96l-4.4,8.63c-2.4,4.71-10.17,5.3-13.24,1.78-5.49-6.3-2.67-12.41-1.31-19.44,5.32-27.59-17.69-53.97-45.96-52.98-25.68.9-44.24,23.28-43.09,48.34l-84.32-.1c-3.38-11.19-11.55-18.86-22.05-22.44l-.2-57.85c-.01-3.7-6.95-5.28-10.48-4.33l-.2-37.74c0-1.37-3.08-3.46-4.49-3.46l-10.69-.06.23-4.94,36.09-.45c-.17,5.83,1.68,10.59,5.55,12.93,4.18,2.53,9.46,1.82,12.95-.82,3.95-3,5.25-8.28,3.53-13.16-1.4-3.95-4.98-6.66-8.63-7.34-3.84-.72-7.48,1.11-10.4,4.11l-41.68-.31c-5.08-1.9-9.96-6.72-15.67-2.01-4.38,3.61-7.63,9.1-4.21,15.49,1.54,2.88,5.82,5.24,8.9,5.63,4,.5,7.2-1.38,10.77-3.95l12.78.11.2,36.6-2.96,4.71.05,56.43c-10.29,3.12-18.47,10.3-16.14,18.55.59,2.08,3.29,4.32,5.74,5.98-3.23,4.15-4.72,9.01-4.65,13.82-5.52,4.78-10.83,7.35-10.9,7.4-5.22,5.76-10.34,6.52-16.58,4.49,2.11-8.16-1-15.05-7.75-18.18,3.18-7.35-.2-15.2-7.27-18.49,2.78-6.84-.65-13.93-8.02-16.69,3.46-6.59,2.04-12.81-3.25-18.44,9.21-5.8,15.69-14.23,16.54-23.34.98-10.56-2.64-20.62-10.6-26.86-9.69-7.6-22.01-7.19-31.51.49-8.22,6.63-11.99,17.04-10.24,27.78,1.48,9.1,7.65,17.36,16.68,22.09-.28,2.87-.59,7.32-1.76,9.15-4.92,5.82,1.02,9.45-2.44,10.63-4.8,1.65-9.73,9.25-6.96,15.47-7.03,3.98-9.08,10.92-7.09,18.23-6.61,4.49-8.94,11.32-7.36,19.01-9.94.21-15.28-.45-17.01-8.86-.45-4.6-3.06-7.69-6.29-10.46-1.02-4.63-2.34-8.7-4.5-12.78,6.33-2.16,9.67-8.17,8.42-14.87-2.48-13.32-16.13-23.71-29.06-29.85,10.9-10.85,14.39-26.5,10.19-41.18,6.35-4.97,10.96-11.41,9.71-19.87-.97-6.62-5.73-12.97-12.97-15.6-8.67-3.16-16.86.87-21.7,7.53-12.9-5.17-26.81-4.75-39.24.29-5.15-7.33-13.76-11.34-22.41-7.47-7.26,3.25-11.88,9.71-12.28,17.26-.41,7.61,3.89,13.89,10.1,18-4.22,14.47-1.72,30.53,10.04,41.41-12.94,6-27.74,16.29-30.22,29.62-1.29,6.93,2.49,12.62,8.95,15.02-3.66,5.16-5.05,9.11-4.83,15.44-14.21,3.39-6.66-13.04-17.23-18.91l-.15-106.06c-.01-9.48-8.58-14.3-16.61-14.27l-68.66.27c-6.96.03-13.94,7.67-13.95,15l-.12,109.95c-.01,11.97,4.71,21.59,15.43,28.16l-34.97-.05c-7.79-.01-13.33-10.56-10.68-17.18,10.35-4.76,18.17-14.65,15.33-26.96l-12.05-52.2c-3.55-15.37-15.97-24.44-31.13-26.25-6.94-.83-12.32,1.61-17.39,5.63l-40.33.21c-3.41-3.28-7.15-5.26-11.77-5.64-16.56-1.36-32.16,8.2-35.95,24.8l-11.98,52.48c-2.57,11.24,3.33,21.84,13.6,26.83l-2.97,8.67c-2.92,8.51-19.67,9.63-28.44,4.25,4.61-3.17,7.61-6.3,7.77-11.4l.33-11.24c.24-8.22-3.43-14.59-10.21-18.99-12.01-7.79-19.55-1.59-23.35-9.45-9.84-20.33-29.91-25.57-52.14-23.2-2.85-5.56-5.47-11.27-10.8-15.09-3.77-2.71-16.76,2.41-20.61,11.67-2.36,5.69-.12,12.01,1.09,16.69l-11.3,15.52-9.22,12.85-5.37-6.86-3.43-21.27c2.32-3.01,3.57-6.23,2.07-10.48-4.23-11.99-13.84-20.91-26.97-21.58,3.8-4.42,6.31-9.41,8.98-14.66,5.15-1.14,10.11-4.65,10.05-11.02l-.13-13.25c-.06-5.59-4.75-7.88-8.59-9.43-1.1-7.39-3.44-15.77-6.04-22.77,3.67-4.73,6.36-10.81,3.89-17.54-1.95-5.29-6.98-8.55-12.99-10.23-3.28-10.21-12.03-17.34-22.97-18.5-13.02-1.38-23.27,7.91-23.22,20.91-22.85,5.54-37.45,25.81-38.03,48.66-5.11.34-9.46,3.88-9.42,9.05l.1,14.7c.04,6.1,5.72,8.56,10.14,9.08,2.26,5.54,4.71,10.82,8.86,14.93-14.61,1.74-26.28,13.14-26.93,27.73l3.38,4.22-3.4,15.02-5.74-4.59c-.49-.39-2.26-.87-2.89-1.03-.2-.05-.38,0-.51.14-2.29-.32-4.46-.87-6.51-1.56l-18.63-12.18c-1.44-1.5-2.34-2.62-2.67-3.03-.04-1.47-.17-2.92-.39-4.32-.88-5.48-4.78-8.57-10.23-8.32,1.39-29.33-15.17-54.43-40.57-66.84-2.55-1.24-7.47-5.99-9.7-.49l-4.61,11.43c-16.43-3.61-32.44-2.15-45.88,6.83-17.43,11.65-27.62,30.86-25.95,51.85,1.21,15.3,9.4,28.13,20.84,38.19l-4.89,8.15c-1,1.66.25,6.07,1.81,6.89,9.34,4.89,17.9,8.5,27.63,11.31l-.65,7.59c-12.49-1.03-23.4,2.63-25.66,15.14l-37.36.11c-5.01.01-10.81-4.93-9.51-9.75.83-3.08,2.5-6.49,2.51-9.95l.19-95.95c4.95-2.41,7.81-6.36,6.84-11.58-.68-3.66-4.5-8.73-9.55-8.72l-39.89.04c-5.76,0-9.69,4.9-10.18,9.84-.5,5,2.72,8.77,7.6,10.95l-.54,54.61c-4.75,1.46-7.71,5.17-7.5,10.07l.86,20.56c-3.53,6.3-6.48,12.51-6.78,13.15-.35.03-.71.03-1.11-.04-7.56-1.29-.79-18.67-14.38-23.99l-.18-58.33c-.02-6.49-7.35-14.39-14.26-14.4l-106.21-.08c-8.3,0-16.14,7.55-16.15,15.7l-.1,69.84c-8.06,4.36-5.14,13.59-10.85,15.98-2.68,1.12-6.13.53-8.79-1.25,4.47-4.04,5.53-8.12,4.61-13.56,1.26-9.14-2.66-17.35-10.63-21.96-4.94-10.21-8.96-20.82-9.29-31.92,2.57-1.53,5.6-3.68,6.37-6.26.89-3.02-2.04-6.32-4.76-8.21,7.52-8.21,9.73-19.55,4.24-29.05-5.18-8.95-15.75-14.09-26.11-11.27-8.31,2.26-13.98,8.22-16.19,14.86-2.9,8.73-.71,16.3,4.34,23.32-2.52,2.36-5.13,5.61-4.84,8.78.25,2.7,3.26,5.45,5.83,7.58-.98,11.45-4.87,22.53-9.87,32.94-8.03,5.46-10.91,13.47-10.46,23.88-7.11-1.54-3.33-11.57-12.61-16.31l-.13-11.32c-.06-5.25-1.45-12.96-6.67-15.75l-34.26-18.33c-5.55-2.97-12.01-2.02-17.28.83l-32.25,17.46c-3.59,1.95-5.92,6.97-7.9,10.68l-5.88.17c-2.04,3.06-4.01,6.19-6.14,9.18-.39-5.2-2.8-10.84-2.04-16.05.47-3.25-1.4-4.72-4.68-4.81-1.59-.04-3.02.66-4.37,1.42-2.78,1.54-5.44,3.35-8.38,1.01-3.55-2.83-4.73-6.68-4.55-10.83.13-3.16,2.19-8.76,6.53-8.83,2.13-.03,4.38,1.38,6.51.94,4.44-.92,6.15-8.46,4.15-11.85-1.79-6.41-2.42-13.3-3.54-19.86-.55-3.21-1.41-6.74-3.48-8.31-2.67-2.02-6.03-2.21-9.21-1.53l-26.09,5.54c-3.44-7.62-10.99-11.75-18.82-9.76-6.56,1.67-13.32,6.89-13.03,15.11.25,7,5.88,11.06,2.01,14.52-.5.45-2.66,0-2.52-.65l.56-2.56c.34-1.53.58-4.62-.06-5.91-.64-1.3-3.88-2.46-5.52-2.32l-16.96,1.42c-5.87.49-13.2,3.78-12.33,11.38l3.18,27.59c.19,1.67,1.85,4.31,3.18,4.79,4.12,1.47,9.8-7.38,15.98-1.08,6.59,6.73,2.64,18.04-2.49,19.48-1.7.48-5.18-.18-7.09-.64-5.22.1-6.92,5.44-6.1,10.01-6.24,7.55-6.75,20.43-2.31,24.47,2.51,2.28,14.07,5.64,17.58,4.85l18.89-4.25c4.67-1.05-.71-9.24,1.47-12.01.73-.93,2.83-2.03,4.12-2.42,5.45,4.57,4.65,11.4,4.14,17.6-.81,9.84,9.64,16.61,18.82,15.18l8.32-.17,40.22.18c7.58.03,14.4-1.48,20.38-5.96l32.59,16.91c2.58,1.34,7.73,2.14,10.25.8l38.45-20.35c4.55-2.41,6.59-8.18,6.61-12.87l.05-16.05c1.72,1.75,3.17,3.67,3.82,5.61,1.57,4.68,4.71,6.73,8.19,9.68,3.65,3.09,6.9,5.97,11.91,7.74,16.38,5.79,34.55,5.41,51.18-.24,3.7,4.07,8.13,5.92,13.67,4.19,9.41-2.93,4.6-15.01,10.96-16.53l.48,13.52c.33,9.35,9.38,14.9,18.25,14.89l96.81-.17c12.58-.02,20.21-9.46,20.32-21.72l.16-17.94c8.48,5.54,3.41,15.55,11.01,21.68,1.45,1.17,5.74,1.46,7.34.7,1.3-.62,3.08-2.77,3.76-4.51.05-.1,3.48-7.08,7.55-13.76l.76,12.89c.52,8.79,8.14,14.72,14.08,17.15,8.35,3.41,16.41.72,22.47-3.85,3.62,6.91,9.86,9.7,17.8,9.73l37.53.14,66.23.31,5.1-3.53,24.14-.38c8.86-.14,16.77-6.56,22.88-12.3l25.65-46.61c1.23,1.39,3.32,2.84,6.68,3.86l.36,4.93c-3.51,4.71-3.57,10.64.41,14.8.44,10.25,8.2,20.24,17.88,23.32.98.31,4.53-.9,4.49.03l-.16,3.87c-.13,3.05.82,9.14,5.28,9.15l19.54.05,19.66.54,40.74-.2c6.17-.03,7.24-9.14,7.32-13.98,2.74,2.08,5.39,4.5,7.48,5.14,2.36.72,7.07-.72,8.93-2.37,4.88-4.34,5.8-9.83,7.99-16.75,1.6,7.88,5.25,13.31,12.49,14.88,1.82,9.75,10.52,16.06,19.52,15.91,8.54-.14,16.18-5.99,19-14.37l34.9.06c2.88,10.12,12.6,16.3,22.79,13.79,7.44-1.83,12.5-7.43,15.94-14.52,1.93,1.9,5.18,6.29,7.57,6.65,6.83,1.03,13.77.95,20.01-.04,9.11-1.45,11.16-11.97,14.09-17.77,7.09-1.76,14.79-3.23,19.28-11.1l10.49-18.39c4.93,3.65,8.48,5.22,13.52,3.28,3.46-1.33,6.65-4.69,7.95-9.45l19.54.08c1.74,4.83,5.17,7.91,8.79,8.98,4.72,1.39,8.58-.49,12.52-3.15,10.23,12.3,8.91,28.09,28.88,28.89-1.42,11.95,6.34,22.67,18.5,22.65l72.18-.09c13.81-.02,25.92-6.62,34.98-16.5,4.43-4.83,6.15-10.53,8.98-16.74,1.76,3.11,3.45,7.28,3.81,9.91,1.19,8.67,8.61,9.45,14.64,9.45,3.27,7.35,7.43,15.18,15.56,18.62,8.85,3.75,18.71,1.93,24.85-6.18,1.67-2.21,4.98-5.64,7.43-6.5,14.1,2.62,24.27-3.22,28.65,4.04,6.61,10.95,20.05,13.34,30.27,6.18,6.69-4.69,9.33-10.78,12.56-19.26l2.59,8.86c1.68,5.77,5.61,9.1,11.63,9.19l11.81.16c14.55,11.46,45.24,10.98,61.18,2.73,3.25-1.68,5.33-3.5,9.42-3.07,4.51.47,9.25-.03,12.94-2.11.78-.44,1.36-.93,1.78-1.46,1.37-.84,6.43-3.97,11.3-7.85.61,2.13,1.55,4.19,2.79,6.08,5.14,7.83,15.07,11.12,24.25,7.87,8.5-3.01,14.43-11.08,14.14-20.79-.24-7.97-3.63-14-10.56-17.63-6.92-3.63-14.95-4.47-22.04-.24-1.48-.69-3.1-1.64-3.92-2.61-2.2-2.6,1.44-9.71,12.39-11.62,16.53-2.89,29.68,7.19,32.63,23.43l2.46,13.53,92.21.1c8.25,14.34,23,22.73,39.33,22.69,16.17-.04,30.41-8.94,39.11-23.36,1.47,6.31,3.84,10.55,7.96,11.85,4.93,1.55,10.73.9,14.18-3.09,2.73-3.14,4.71-7.86,6.75-11.66,1.45-.78,3.94-2.08,5.75-3.27.49,1.59,1.71,3.95,4.77,6.43,6.77,5.5,19.02,8.95,36.39,10.28,3.33,1.72,7.21,1.96,11.43,2.1l19.55.63,73.13-.1,23.49-.21c9.04-.08,12.91-5.75,17.96-11.46,5.01-1.47,12.32-1.78,15.4-9.24l11.19-27.11,6.47,16.26c.61,3.59,2.11,9.33,5.64,13.94.64,1.24,1.47,2.31,2.49,2.99,3.1,2.09,7.18,2.16,11.25,2.38.09,3.66-.04,7.91.49,9.85l4.15,8.56,10.78-1.23,19.51,5.68,35.83-9.6c1.22-1.52,2.28-4.76,2.91-7.09l15.84,4.9,32.46-8.66c3.73-1,5.66-3.6,5.66-7.5l-.07-82.75ZM1638.47,74.42c3.32-1.97,7.09-.35,8.67,2.58,1.27,2.36.21,6.07-2.49,7.66-2.59,1.52-6.19.8-8.16-2-1.51-2.14-1.31-6.27,1.99-8.23ZM1584.55,85.2c-2.18,1.17-5.8.57-7.94-2.47-1.65-2.33-.78-6.79,2.46-8.46,2.79-1.43,6.89-.43,8.55,2.28,1.58,2.59.63,6.66-3.07,8.65ZM105.4,232.8c-2.69,2.77-7.31,4.06-11.26,3.24-12.99-2.71-6.42-12.15-9.46-22.72-1.24-4.31-3.14-8.65-8.33-9.39-2.6-.37-6.6,1.96-7.78,3.94-1.55,2.59-1.23,6.62-.48,10.99l-20.39,3.99-5.56-28.15c5.47.94,9.55.65,13.27-3.3,6.22-6.61,6.85-17.89,1.1-24.99-4.52-5.58-11.16-6.32-17.72-1.2l-3.36-27.5c-.35-2.9,2.74-4.83,5.15-5.09l18.53-1.99.56,10.29-7.42,4.31c-.64.37-3.61-1.2-3.18-1.8l2.88-3.97c-.47-.59-3.95.15-5.02,1.17-1.56,1.5-2.06,4.71-1.31,6.19.8,1.59,4.47,3.81,6.21,3.35,4.06-1.06,7.1-3.07,10.65-5.07,4.28-2.41,9.92-3.68,11.08-9.9.53-2.86-2.2-7.32-3.39-10.26-1.93-4.79,2.28-9.28,5.8-11.18,4.17-2.26,9.22-1.77,12.89,1.48,3.06,2.71,3.86,6.48,2.41,10.21-1.85,4.75,0,10.1,5.04,11.25,3.87.89,7.41-1.3,8.2-4.71.77-3.3-.95-7-5.14-7.77l.91,5.77c.44.66-4.41.67-4.2-.4l1.36-7.1,28.27-6.03c2.06-.44,3.97,2.83,4.27,4.87l3.7,25.76c-5.03-1.8-8.96-1.07-12.3,2.5-6.88,7.35-6.18,19.76,1.45,26.32,4.4,3.78,9.01,3.68,14.81-.63l3.68,27.67-13.68,3.29-2.15-8.2c-1.13-4.32-4.66-7.94-9.66-7.4-8.44.92-12.64,8.87-12.06,16.83.4,5.57,1.3,9.83,3.89,14.79,1.77,3.38.2,8.01-2.26,10.55ZM154.2,236.37l-44.72.18c5.26-6.52,5.65-13.4.59-21.34l28.14-5.65c10.25-2.06,6.89-9.59,12.8-19.05l2.26-3.62c.61-.97,3.93-.29,4.81.39l-.05,34.91c0,4.47,2.15,7.23,5.66,10.57-2.14,1.25-6.56,3.58-9.49,3.59ZM203.68,248.12l-35.4-18.48c-2.87-1.92-4.91-4.94-5.45-8.33l.48-37.94,36.92,19.54c1.48.78,3.76,4.01,3.75,5.63l-.31,39.57ZM202.94,198.21l-38.02-20.95,34.22-19.22c4.46-2.51,9.94-2.83,14.72-.76l32.22,17.06,1.92,2.15c.39.44-.92,2.23-1.6,2.6l-33.14,17.88c-3.15,1.7-6.99,3.09-10.33,1.25ZM246.95,228.44l-37.27,19.68-.28-38.47c-.02-2.51,1.62-5.29,3.7-6.62l37.64-19.71.26,37.97c.02,2.69-1.94,5.76-4.04,7.17ZM292.64,113.38c5.26-6.55,14.79-7.98,21.87-3.81,6.77,3.98,10.78,12.42,8.34,20.08-2.45,7.68-9.3,13.8-18.46,12.83-6.96-.74-12.15-5.35-14.11-9.88-2.97-6.86-2.08-13.69,2.35-19.22ZM285.61,188.84c5.29-11.37,8.95-23.65,9.6-36.02-2.66-.64-5.49-1.9-6.1-3.38-.58-1.38,1.79-4.25,3.61-5.37,7.26,4.57,15.73,5.68,23.77,1.28,1.61-.88,5.89,2.39,5.01,4.32-.86,1.91-4.11,3.13-6.78,3.78.38,13.48,3.7,26.02,10.42,38.85-10.03,15.97-39.91,8.56-41.06,1.23-.18-1.13.83-3.2,1.52-4.69ZM278.09,220.96c-6.91-2.85-5.46-18.72,2.05-26.01,1.08,4.67,3.31,7.42,7.43,9.38,13.54,6.46,33.75,5.08,42.03-9.3,6.46,7.55,7.01,13.6,5.54,23.84-17.76,9.51-38.57,9.7-57.04,2.08ZM372.85,237.02c-7.6-.8-11.51-6.51-11.45-13.81l.16-18.7-.41-30.63,12.18-.18-.48,63.32ZM378.05,236.98l.09-62.8,9.88-.21-.17,27.78c-.01,2.32,1.36,4.17,5.01,4.63l.13,30.55-14.93.05ZM397.74,236.92l-.05-29.7,4.99-4.39-.09-28.74,8.27.12.04,28.37c0,1.58,3.18,3.72,5.14,4.45l.26,29.76-18.56.14ZM421.28,237.02l.11-30.27c2.72-.89,4.84-3.03,4.84-4.97l-.09-27.67,8.47.19-.17,27.47c-.01,2.43,2.35,4.48,5.28,5.33l.2,29.69-18.65.23ZM444.79,236.9l-.02-29.69c2.2-1.57,3.86-2.99,5.12-4.46l-.07-28.69,11.42.17-.05,28.49,2.51,4.89.03,29.25-18.95.03ZM486.06,226.26c-1.69,7.55-7.09,12-17.44,10.64l-.11-29.84c2.7-1.8,4.6-4.42,4.58-7.37l-.19-21.43-2.85-1.48c-.48-.25-.12-1.98.13-2.56l15.91-.06-.03,52.1ZM361.19,168.36l.17-28.49c.04-6.53,7.04-10.93,13.03-9.82l101.23.07c6.3-.01,10.56,4.63,10.79,10.67l.04,27.45-125.26.13ZM560.84,218.45c-.03,9.3-8.89,14.99-16.61,14.81-7.8-.17-16.66-6.42-16.74-15.58l-.48-55.39c9.77-8.93,17.28,6.71,34.04-1.47l-.21,57.63ZM527.11,155.75l-.09-33.29h34.02s.12,32.46.12,32.46c-13.49,8.31-20.86-4.18-34.04.83ZM525.03,117.1c-2.81,0-5.17-1.96-5.47-4.64-.22-1.93,2.43-5.17,4.85-5.17l38.63.02c2.22,0,4.78,2.3,5.02,4.28.3,2.51-1.96,5.45-5.15,5.46l-37.87.06ZM675.68,103.68c2.38,5.95-1.64,10.53-7.81,13.58-5.76,2.85-7.17,6.55-9.33,11.77-2.02,4.88-5.25,8.95-2.75,14.59,4.29,9.66,15.89,5.45,16.03,12.33.11,5.72-7.76,7.6-9.83,18.58-3.3,1.38-8.05,3.47-10.17,6.02-3.46,4.14-3.4,8.23-.66,13.85-12.18,1.27-23.41-2.62-33.66-9.61,4.98-3.4,7.14-7.32,5.88-13.29-1.6-7.61,10.37-5.48,10.78-15.55.32-7.73-2.9-9.98-10.14-12.05-.58-12.95-13.1-8.26-12.36-13.8.69-5.15,10.68-4.15,13.71-13.48,1.59-4.9-.03-9.69-3.44-13.98,16.37-10.61,37.87-9.74,53.75,1.04ZM685.83,164.82l-13.69,12.82c-1.54-.25-3.6-2.33-3.93-3.68-1.63-6.76,10.35-8.07,9.59-18.22-1.04-13.76-15.73-8.77-16.41-16-.59-6.3,3.75-10.72,7.61-14.71l2.49-2.58c1.4-1.45,7.83,3.56,12.44.31,1.77-1.25,2.98-4.54,4.17-7.48,8.07,10.65,11.17,23.8,9.13,36.43-6.31,2.32-9.62,6.77-11.39,13.11ZM697.1,157.21c-5.12,19.19-19.41,32.71-38.82,36.04l-3.87-7.09c1.38-3.51,6.08-7.45,9.86-6.36,2.33.67,5.04,2.96,6.77,3,6.29.16,8.63-6.43,13.1-9.61,3.55-2.53,5.85-4.53,6.92-8.79.85-3.42,2.67-6.43,6.05-7.19ZM680.77,118.74l-5.63.08,6.16-10.31c3.39,3.43.84,10.21-.52,10.23ZM617.36,105.81c9.61,15.93-12.26,11.91-11.67,25.2.43,9.71,11.73,7.42,12.5,12.63,1.18,7.95,10.73,4.95,12.05,10.29,1.56,6.34-15.71,4.95-10.44,21.11l-6.34,6.17c-23.42-21.83-20.34-56.28,3.9-75.4ZM616.19,238.16c1.44-7.1,7.78-9.28,14.13-9.95l10.87-1.14,1.13-17.34c-11.15-2.04-20.14-4.93-29-10.85l4.02-6.99c22.23,12.78,48.32,11.75,66.04-7.28l9.47-10.17c5.33-5.72,8.57-14.56,10-22.51,2.89-16.09-2.75-32.54-13.06-44.68-5.57-6.56-12.54-10.18-20.42-14.25l2.96-8.26c33.97,13.32,49.3,50.26,35.83,83.56-9.54,23.59-30.21,39.16-56.56,41.62l.9,18.3,17.51.48c4.98.14,8.92,4.04,9.06,9.36l-62.88.11ZM729.8,225.34c-3.99.59-11.2,10.05-27.28,10.15l-17.78.11c-2.1-6.66-6.85-12.29-14.14-12.58l-13.02-.51c-1.15-.99-1.27-5.44-.33-7.26,34.01-6.59,55.08-28.63,61.13-62.96,5.01,1.6,6.01,6.04,7.31,9.06h0s.01.02.02.02c.55,1.27,1.15,2.28,2.12,2.73,3.94,4.7,13.1,14.03,25.77,17.12l-23.79,44.11ZM894.46,161.96c-7.45,3.36-14.19,5.22-22.39,5.1-4.28-7.93-5.89-16.92-3.11-26.01,12.81-1.49,23.71,8.54,25.5,20.91ZM824.73,201.02l-28.41-4.26.38-25.33c7.16-5.37,8.11-17.63,7.63-28.19,18.31,10.92,39.32,10.84,57.52-.47.02,10.8.18,22.92,8.1,29.18l1.48,24.77c-9.59.82-19.24,4.7-28.6,3.17-6.03-.99-11.36-5.69-18.11,1.13ZM840.64,210.04c-.21,2.36-3.72,5.09-5.82,5.42-2.85.45-7.33-.91-8.28-3.63-1.74-5,1.43-8.58,5.39-9.21,4.15-.66,9.2,1.9,8.71,7.42ZM820.84,205.92l-.21,7.23c-8.83-.64-16.92-2.15-26.22-4.69l1.69-6.41,24.75,3.87ZM797.33,107.67c26.33-7.03,44.79-6.39,70.94.02,1.68,20.22-11.72,36.47-32.32,37.46-12.24.59-23.63-2.68-30.99-12-5.65-7.15-7.4-15.93-7.63-25.47ZM871.98,202.31l.75,7.69-26.8,3.11-.06-7,26.11-3.81ZM882.39,92.57c.74-.57,3.43,1.53,3.45,2.54l.27,15.38c.05,2.71-2.82,4.89-5.23,4.01l-.28-18.93c-.01-.77,1.19-2.55,1.79-3ZM838.9,23.94c11.87-1.85,22.17,6.23,24.44,17.89,4.36.56,8.99,1.97,10.65,4.35,2.9,4.17,2.8,8.99-.73,13.18-10.92-15.01-27.65-23.03-46.04-21.37-.02-7.14,4.83-12.98,11.68-14.04ZM836.18,43.51c19.42,1.79,34.97,16.48,39.06,34.85-12.39-10.93-25.44-18.36-41.49-20.76-16.63,1.93-30.54,9.48-43.2,20.89,4.11-21.24,23.63-37,45.63-34.97ZM784.68,114.24c-1.8,1.48-5.17-.75-5.12-3.32l.24-15.05c.02-.94,1.74-2.82,2.54-3.03.8-.21,2.62,2.06,2.61,2.99l-.27,18.42ZM833.27,63.46c17.97,3,33.01,13.17,44.18,26.5-1.65,4.5-1.77,7.8-1.91,14.09-28.26-9.27-57.29-9.72-85.49.42-.04-5.86-.25-10.15-1.2-15.13,11.06-13.82,26.65-23.55,44.42-25.88ZM788.51,220.89c-3.99,3.27-8.25-.45-10.65-2.81-3.76-3.69-6.5-6.26-7.17-12.49l18.46,4.57-.65,10.73ZM790,193.86l-18.96-4.62,3.33-20.03,16.99,3.72-1.35,20.94ZM772.29,161.6c1.64-11.82,12.27-21.69,25.33-20.18,1.99,8.15,1.49,16.42-2.55,25.03-7.87.81-14.91-1.33-22.78-4.85ZM870.54,236.12l-71.24-.21c-1.38,0-3.84-.46-4.71-1.08s-1.28-3.05-1.17-4.24l1.45-15.66c9.78,2.02,18.62,2.98,28.22,3.13,6.06,4.46,13.59,4.48,19.47-.08l29.57-2.16,2.7,15.51c.29,1.68-2.84,4.81-4.29,4.8ZM875.2,172.95l16.62-3.49,3.63,19.43-18.34,5.06-1.91-21ZM890.72,227.5c-3.75,1.82-6.37-7.44-7.52-7.26l-3.67.57c-1.95-2.22-2.34-8.5.31-10.71l16.97-1.69c3.7,6.51,1.56,15.38-6.1,19.09ZM899.17,202.53l-20.25,2.19-1.8-5.31,20.94-5.66c1.67,2.1,2.79,6.37,1.12,8.78ZM931.85,150.46c2.06-3.19,6.68-5.78,12.24-6.81,2.89,2.97,5.7,7.46,7.63,11.51-7.75,2.11-12.95,4.61-20.05,8.83-2.18-3.57-2.73-9.03.18-13.53ZM951.44,223.49c-.47,7.96-6.28,15.41-15.34,14.86-8.64-.52-13.9-8.06-13.68-15.41.24-7.77,6.57-14.91,14.86-14.59,8.47.33,14.62,7.55,14.17,15.14ZM1013.32,237.84c-8.95,2.89-16.72-4.29-17.93-12.27-1.28-8.45,5.06-16.77,14.22-16.8,7.42-.03,13.12,5.8,14.09,12.31,1,6.76-2.61,14.26-10.38,16.76ZM1030,223.37c-.12-11.43-9.36-20.43-19.92-20.5-10.98-.07-20.38,8.67-20.16,20.7l-32.48.11c.49-11.44-8.4-20.45-19.44-20.83-10.77-.37-20.67,7.9-21.21,19.24-8.98-1.42-8.06-24.42-.92-30.61,3.94-3.41,5.43-6.5,7.96-10.9,7.55-13.12,22.95-20.22,38.06-20.98l-.3,22.21-27.64.14-.49,2.52c-.16.8,2.09,1.89,3.22,1.91l28.23.64,11.68.23.14-5.12-8.4-1.07-.57-20.91c15.87-1.81,30.82,7.08,37.92,21.71,3.52,7.25,9.96,4.14,20.24,7.62,5.64,1.91,10.99,7.16,11.01,13.33l.06,13.87c.01,3.62-3.16,6.81-7,6.69ZM1111.82,186.89c-3.48.94-7.43-1.72-8.19-4.57-1.04-3.86.42-7.76,5.23-9.02,3.59-.94,7.57,2.53,8.05,5.3.66,3.82-1.85,7.42-5.09,8.3ZM1160.81,180.68c-1.83,5.06-6.15,6.24-9.63,4.66-3.6-1.64-5.88-6.28-2.89-10.15,1.83-2.36,5.87-3.11,8.79-2.11,2.4.82,4.8,4.64,3.73,7.6ZM1176.03,199.01c-1.85-5.77-6.06-11.3-9.77-15.73.86-7.31-1.82-14.1-8.84-15.75-6.64-1.57-13.47,1.36-15.34,9.2l-19.65.13c-1.91-7.24-9.09-10.15-14.85-8.75-7.21,1.75-9.71,8.32-9.38,15.16l-11.95,19.65c-2.56,4.22-6.28,7.84-10.72,8.52-4.39.67-10-1.29-13.02-5.05-3.85-4.77-5.85-11.97-4.4-18.13l11.96-50.76c3.37-14.29,16.63-22.27,31.54-20.2,3.38.47,7.53,3.42,9.52,6.57,5.38,8.49,10.25,10.87,10.61,7.85.09-.78-.33-2.53-1-3.16l-6.3-5.91,34.93.36c-3.17,3.04-5.31,4.73-5.38,8.55,7.37.98,10.06-11.03,16.9-13.55,10.93-4.03,28.82,2.27,33.73,17.85,6.08,19.3,10.61,38.65,12.66,58.08.96,9.09-5.67,16.28-13.27,17.39-8.42,1.23-15.13-3.51-17.96-12.33ZM1296.3,231.48c-8.21,2.8-17.2,2.76-25.84,2.76-8.76,0-16.86-.73-24.4-5.21-7.13-4.23-12.15-11.39-12.15-20.31l-.02-113.17c0-5.07,5.08-9.14,9.81-9.15l68.02-.1c4.81,0,9.85,2.88,9.86,8.53l.15,99.39c.03,17.18-7.93,31.29-25.43,37.27ZM1461.8,196.49c-1.38,2.09-5.95,3.64-8.4,2.95l-8.05-2.24c-.68-11.86-5.55-21.84-12.32-32.92,15.44,1.39,35.5,21.97,28.76,32.21ZM1450.13,91.55c5.26,5.44,5.32,15.27-2.57,20.82-4.27-8.24-10.07-14.61-18.2-19.77,5.64-6.94,14.99-7.05,20.77-1.05ZM1357.83,94.67c3.24-6.31,11.13-9.56,17.73-6.29,1.52.75,3.73,3.07,5.12,4.59-8.05,4.87-13.42,10.82-17.8,19.48-6.53-3.58-8.18-11.68-5.05-17.77ZM1366.29,118.15c8.42-23.72,36.6-32.87,58.2-22.07,19.02,9.51,27.11,33.05,16.97,51.63-5.11,9.36-13.32,15.23-23.33,17.36-6.78,1.45-12.9,4.54-20.61,1.09-1.13-.51-4.12-.49-5.35-.74-21.62-4.4-33.14-26.8-25.88-47.26ZM1346.27,193.85c-1.85-12.42,15.59-26.04,30.13-29.87-6.33,11.12-11.78,20.97-12.41,32.95l-5.55,1.87c-4.68,1.58-11.28,1.05-12.17-4.95ZM1386.99,227.7c-.69,2.99-5.18,7.5-7.86,9.58-6.39,4.95-13.74,4.14-19.56-.25-6.02-4.55-9.44-12.26-9.45-19.75-.01-9.79,7.75-15.07,16.84-14.38,12.76.97,23.13,11.29,20.03,24.8ZM1415.53,226.31l-21.79.09c-.03-14.85-9.22-28.2-24.33-29.07,1.03-10.75,5.55-20.66,11.59-29.64,15.07,7.57,31.89,7.59,47.61-.15,6.02,8.5,9.49,18.2,11.18,29.58-14.47,2.56-24.94,13.89-24.26,29.2ZM1450.43,236.08c-5.51,5.05-13.2,6.17-19.92,1.57-3.55-2.43-7.97-6.83-8.9-10.86-2.01-8.7,3.74-17.91,10.7-21.84,6.66,2.4,12.4-4.97,20-.33,10.83,6.61,7,23.33-1.88,31.45ZM1501.81,132.48c1.27-9.78,8.93-18.56,19.13-19.59,12.63-1.27,23.65,9.1,23.08,22.2-5.02-5.29-9.75-3.08-14.92-1.56-3.01-.94-8.12-4.16-11.27.85l-7.16.89-1.36,2.84c-.32.68-2.15.4-3.32.15-2.62-.56-4.58-2.67-4.18-5.77ZM1536.47,138.28c-1,.49-3.03-.52-3.8-1.46-.69-.84.8-3.61,1.91-3.88.9-.21,3.39.53,3.84,1.33.54.97-.96,3.51-1.95,4ZM1502.15,141.81c3.18.73,7.81,1.86,9.76.7,8.19-4.85,8.72,3.9,16.4-1.93l6.55,2.07,4.27-2.44c1.1-.63,4.41,1.51,4.65,2.73-1.9,7.24-7.77,14.23-15.61,16.58l-.13,23.64-9.58.09-.27-22.86c-7.67-4.27-15.06-9.63-16.03-18.6ZM1512.25,186.4c15.79,5.03,20.49-2.44,25.88,2.69,2.04,1.94,2.83,7.33-.07,8.91-11.25,6.12-32.51,4.3-31.92-5.12.17-2.72,3.08-7.44,6.11-6.48ZM1499.36,208.78c.74-2.1,3.11-4.83,5.79-5.93,11.53,5.36,24.21,5.64,35.6-.08,2.61,1.18,4.92,3.3,5.8,5.18,6.41,13.66-25.37,18.73-45.45,9.42-2.26-1.05-2.53-6.38-1.75-8.59ZM1550.22,238.95c-16.9,7.52-37.58,7.98-54.15-.15-6.36-3.12-4.46-13.8.86-17.33,16.34,7.58,35.27,8.26,51.58-.11,3.49,1.79,5.29,4.58,5.67,7.66.4,3.29.29,8.04-3.95,9.93ZM1611.66,221.02c.68,2.05-.47,5.16-2.56,5.68-1.7.43-4.87-1.19-5.57-2.98-.6-1.55,1.27-4.46,3.59-5.41,1.36-.55,4.1,1.36,4.54,2.71ZM1593.28,216.27c1.79-4.81,6.75-9.01,11.81-8.07,3.87,5.81-11.56,9.19-5.27,19.17,3.19,5.06,9.17,5.58,13.58,2.18,4.29-3.31,5.06-10.52-.12-14.26-1.48-1.07-3.68-3.81-2.68-6.25,7.48-1.06,12.51,7.13,12.3,14.14-.2,6.87-4.35,11.81-9.31,14.29-6.21,3.1-12.79,1.04-17.02-2.92-5.27-4.95-5.76-11.65-3.3-18.26ZM1607.08,184.59l.06-56.18,7.59.47.05,55.37-7.7.34ZM1643.6,222.12c-1.32-2.32-1.71-4.85-1.88-8.59h38.21s46.54.07,46.54.07l2.01,8.32-84.88.21ZM1796.66,174.77c6.02,5.31,9.14,11.02,11.74,17.83l-8.99-.92c-2.66-.27-5.94-4.83-6.25-7.33-.38-3.12,1.36-7.3,3.5-9.57ZM1791.31,170.71l-2.72,8.89-8.69.16c-4.01-6.55-9.91-10.02-17.55-13.47,10.19-3.43,19.91-.89,28.95,4.42ZM1791.89,194.93l-9.07,2.6-4.72-9.59c-.01-2.35,5.68-5.5,7.98-4.11,3.86,2.32,5.31,6.85,5.81,11.11ZM1755.3,168.72c9.76,1.76,22.56,12.96,19.93,14.55l-3.27,1.99c-12.36-5.49-24.22-3.05-36.07,3.07,3.24-8.97,10.18-16.61,19.42-19.62ZM1731.8,204.83c.22-3.63,4.15-8.88,6.89-11.08,10.54-8.46,24.68-8.25,35.71-1.47l3.8,8.69c1.24,17.35-10.61,33.16-27.1,38.29-12.4-7.3-20.17-20.14-19.3-34.42ZM1799.95,231.31c-10.13,11.21-25.95,16.42-41.5,10.89,15.59-7.36,23.66-23.31,25.14-40.3l9.04-2.09c6.98,9.52,9.03,19.8,7.32,31.49ZM1806.79,222.48c-1.15-6.61-2.26-12.65-5.4-17.71-1.98-3.18-3-5.15-4.25-8.91,5.05-.65,8.05-.43,12.35.76,2.59,9.07,1.29,17.77-2.7,25.86ZM1874.9,138.89l-3.68,7.74c-.25.53-1.75,1.41-2.28,1.64s-1.63-2-1.42-2.55l3.34-8.61c1.42.1,4.38,1.08,4.05,1.78ZM1859.23,133.21l9.61-14.67-7.41-15.75,16.15,5.44,13.12-12.64.35,18.33,14.32,8.37-16.48,5.78-3.53,16.73-9.35-13.17-16.77,1.57ZM1842.71,215.49c-1.21,1.39-2.77,2.67-3.72,2.43s-1.67-2.59-1.6-3.85l26.45-61.18,1.95-1.16c.57-.34,1.92.78,2.55,1.52l-25.63,62.24ZM1995.26,170.05c2.83-.8,5.84,2.04,6.08,4.35.26,2.52-1.39,5.33-4.11,6.12-2.12.62-5.14-1.49-5.8-3.61-.8-2.57.27-5.85,3.83-6.86ZM1949.01,154.44c2.86-1.51,6.46-.21,7.44,2.74.64,1.91-.32,5.5-2.41,6.92-2.16,1.47-5.6.51-7.32-2.13-1.3-2-.56-6.02,2.29-7.53ZM1901.77,177.83c-1.2-2.71-.49-6.33,2.79-7.58,2.89-1.1,6.2,1.15,6.74,3.52.51,2.27-.98,5.7-3.05,6.53-2.46.98-5.67-.66-6.47-2.47ZM1894.08,233.91c-7,.14-11.78-6.14-11.77-12.61.01-11.43,12.19-18.03,24.17-18.37l4,30.65-16.4.33ZM1987.2,233.99l-72.07.08-5.82-49.74,17.71,13.32c.77.65,2.77,2,3.72,1.81,1.13-.24,2.81-1.39,4.24-2.39l14.63-26.72,2.57-.65c.6-.15,1.39,1.34,1.73,1.96l14.27,26.02c1.19,2.17,5.41,2.13,6.85.54l18.09-13.83-5.9,49.61ZM2026.2,224.32c-1.17,4.79-6.09,9.41-11.44,9.45l-22.54.15,6.79-47.91c3.01-1.85,5.88-4.22,7.18-7.23h0s13.48-9.48,13.48-9.48l4.7-13.82c.93-2.75,5.66-5.81,7.61-3.5,2.62,7.98,6.31,14.55,11.81,21.05l-14.61,27.51-4.83,9.98c-.93,4.93-.34,9.11,1.84,13.81ZM2056.79,180.83l-14.79,37.08c-1.92,2.16-4.31,3.99-6.26,4.45-2.29.54-6.23-1.7-6.45-4.49-.42-5.27,2.16-10.15,4.48-14.74l16.04-31.76c-8.69-8.46-14.17-18.59-13.15-30.49.99-11.62,5.91-22.72,13.56-31.56,11.92-13.78,35.12-16.75,48.08-1.55,13.99,16.42,8.31,39.26-5.28,55.57-7.79,9.35-19.25,13.55-30.9,12.22-1.92-.19-4.61,3.67-5.34,5.26ZM2158.67,132.85c1.12-.01,3.87,1.18,3.96,2.3.07.97-2.24,2.49-3.21,2.54-1.16.05-3.91-1.15-4.19-2.28-.27-1.08,2.32-2.55,3.44-2.56ZM2165.38,140.27l1.49-6.79,5.85.84.84-5.78,6.84.08.74,4.15c.19,1.04,3.62.77,4.09.8l.16,5.17c.04,1.29,3.99,1.96,4.4,1.46l.21-6.62,6.77.02,1.43,7.13c-8.25,1.22-16.47,5.81-24.78,5.58-7.71-.21-15.59-4.14-22.71-6.11,5.16.35,10.05,1.02,14.67.07ZM2099.77,202.67c.06-.16.13-.3.23-.37.36-.27,1.06-.46,1.87-.59.13-.02.27-.04.41-.06.42-.05.85-.09,1.28-.11.84-.04,1.63-.02,2.13.05.08.01.17.07.26.17.45.49.93,1.93.97,2.79.02.34-.04.59-.2.65l-3.21,1.2-.34.13c-.09.03-.2.05-.33.06-.13.01-.27.01-.43,0-.94-.06-2.24-.47-2.5-.97-.29-.55-.44-2.17-.14-2.96ZM2106.79,208.23c.88-.01,3.55-.36,3.73-1.17l1.13-5.21,5.06.36.7-5.65,7.28.43c.01,2.1-.14,4.61.78,4.62l4.43.03-.17,5.02c-.04,1.04,3.02,1.9,3.68,1.77l1.3-5.91,6.65.52,3.16,5.62-18.34,4.73c.36-1.95,1.04-5.5.28-6.6-2.62-3.77-10.55-3.73-12.69-.25-.46.74-.96,2.97-1.18,3.75-.27.97,2.56,3.57,3,2.6l1.59-3.54c.45-1,3.43-1.47,4.34-.86.91.61,1.48,2.15,2.47,4.76-.78,1.25-5.31,2.67-7.16,2.07l-21.95-7.18,11.94.1ZM2117.85,245.28l-28.63-9.97-.02-24.07,29.44,9.79,32.68-9.88.28,24.7-33.76,9.42ZM2172.93,233.42l-15.8-5.78-.25-19.8c-4.98-4.49-11.81-2.48-10.31-7.2l26,8.74,33.41-8.45.06,23.04-33.11,9.45ZM2145.1,194.44l.07-22.1,27.36,8.07,33.41-8,.07,22.95-32.64,8.92-28.27-9.84ZM2172.77,176.04l-27.67-9.47-.06-23.46,28.37,9.1,32.61-9.06.06,23.44-33.3,9.46Z"/>
</svg>