<?xml version="1.0" encoding="UTF-8"?>
<svg id="Capa_1" data-name="Capa 1" xmlns="http://www.w3.org/2000/svg" viewBox="0 0 708.66 708.66">
  <defs>
    <style>
      .cls-1 {
        fill: #d84565;
      }

      .cls-2 {
        fill: #d84565;
      }

      .cls-3 {
        fill: #6188c1;
      }

      .cls-4 {
        fill: #6188c1;
      }
    </style>
  </defs>
  <g>
    <path class="cls-3" d="M399.09,308.9c13.25,2.37,27.89,11.4,32.12,24.62l-19.63,5.25-15.87-26.52-5.19.96c4.95,9.11,12.52,16.67,14.89,27.19l-17.92,5.79c-9.91-21.95-46.31-18.71-50.52,5.54l-17.12-4.83c-1.52-.86-.92-1.45-.62-2.68,2.33-9.59,11.9-22.42,18.8-29.42l-6.25-2.54-18.36,31.5-20.34-4.9c3.41-10.75,13.01-20.82,23.15-25.54,2.09-.97,13.25-3.95,13.23-4.95-20.11-16.26-14.61-40.69.54-58.34,15.49-18.05,40.55-19.7,61.24-9.82l15.31,10.89c4.13-7.53,2.92-15.29-6.94-15.07-2.22.05-4.55,1.31-6.37,1.14-1.09-.1-8.96-4.01-9.13-4.87,16.1-26.87,53.07,1.95,32.68,25.27-1.29,1.48-4.26,2.36-4.75,3.89-.6,1.85,2.99,12.31,2.98,15.98-.02,12.17-8.15,22.96-15.94,31.45ZM343.11,264.14c-7.21,2.14.5,13.55,5.68,7.86,3.34-3.67-.16-9.49-5.68-7.86ZM385.98,265.3c-5.09-4.92-11.86,3.22-6.79,7.32,4.73,3.83,10.17-4.06,6.79-7.32ZM380.51,279.32c-16.99-17.12-48.71,2.36-35.84,22.45,6.12,9.55,24.4,10.55,33.38,4.82,10.19-6.51,10.81-18.87,2.47-27.27Z"/>
    <path class="cls-3" d="M532.84,216.96c-2.26,13.88-9.59,29.67-18.64,40.59-4.08,4.92-20.17,18.17-21.75,22.14-.46,1.17-1.1,4.12,1.37,3.52l16.1-13.96c5.77,3.69,5.77,10.26,3.24,16.16-1.72,3.98-15.8,25.08-20.46,18.21-1.23-1.81-.56-12.83-4.74-15.66-1.01-.64-16.2,4.63-17.14.06-.44-2.12,14.13-21.5,14.67-27.98.29-3.43-2.16-4.97-5.13-2.87l-14.91,28.19c-6.71-1.83-8.33-8.61-7.48-14.97-3.87-.25-17.76,5.21-19.87,2.2-2.46-3.5,6.66-20.46,9.36-23.96,5.52-7.18,9.75-6.2,17.47-9.29,6.59-15.54,12.82-32.45,25.85-43.8,12.5,9.91,26.35,17.74,42.06,21.42ZM498.29,218.31c-17.99.49-13.52,30.04,4.86,22.83,12.25-4.8,8.22-23.19-4.86-22.83Z"/>
    <path class="cls-3" d="M382.78,155.04c6.11,5.91-7.88,12.32-9.17,16.56-1.66,5.5,4.74,15.21.42,18.61-6.02,4.73-12.87-4.73-18.23-4.38-5.13.33-11.73,10.65-17.84,4.92-3.58-4.96,2.13-13.78,1.02-18.06-.92-3.51-12.41-7.58-11.45-13.91,1.14-7.48,13.74-4.16,17.6-7.09,3.9-2.97,4-20.57,13.89-14.09,3.52,2.31,4.64,12.57,9.04,14.51,3.11,1.37,12.36.65,14.72,2.94Z"/>
    <path class="cls-3" d="M533.87,212.46c-1.24.79-9.53-1.04-10.93-1.93s-1.99-5.14-4.61-7.43c-7.01-6.13-19.69-1.86-23.86-12.3.36-2.05,18-14.81,21.01-16.53,12.16-6.95,18.16-6.77,19.58,8.9.35,3.87.51,28.21-1.18,29.29Z"/>
    <path class="cls-3" d="M345.56,233.98c-3.65-.79-6.73,3.78-9.35,4.17-3.07.45-7.62-5.3-13.69.1-6.61,5.87.7,11.24.4,13.21l-5.24,9.24c-2.75,1.91-8.43-6.08-9.3-8.26-7.9-19.75,13.03-39.49,30.7-27.48,1.53,1.04,8.16,7.14,6.49,9.02Z"/>
    <path class="cls-3" d="M547.1,281.89c-3.63-3.64-.84-8.87,2.61-11.33,3.01-2.14,19.21-9.93,22.54-10.65,10.17-2.18,12.27,7.17,4.93,12.42-2.24,1.6-21.22,10.25-23.64,10.68-1.9.34-5.06.25-6.43-1.12Z"/>
    <path class="cls-3" d="M262.81,176.39c2.23-.34,5.1,1,6.8,2.41.89.74,13.12,16.19,13.71,17.32,2.81,5.39.81,11.58-5.75,11.22-6.04-.33-14.47-16.18-19.67-20.05-3.08-3.83.51-10.23,4.91-10.91Z"/>
    <path class="cls-3" d="M467.68,292.92l4.28.4c5,9.86-14.5,30.69-23.15,22.06-4.58-4.57.44-21.04,4.42-25.66,2.28-2.64,8.18-5.07,8.96-.48.3,1.78-7.42,6.52-4.78,12.15,2.93,6.25,10.96-3.93,10.27-8.47Z"/>
    <path class="cls-3" d="M423.4,146.43c14.28-4.37,5.35,20.38-.45,22.09-12.56,3.7-3.51-20.87.45-22.09Z"/>
    <path class="cls-3" d="M366.98,296.05l7.5,1.09-.48,3.27-1.3.85c-3.28,1.05-6.31-.77-9.35-.8-1.8-.02-9.55,2.79-10.28-.66-.65-3.04,6.67-2.47,7.48-5.35.69-1.89-5.53-3.66-6.3-6.62-2.06-7.95,21.68-9.69,19-.01-.96,3.46-7.47,3.77-6.26,8.24Z"/>
  </g>
  <path class="cls-4" d="M296.82,282.16c-2.57-5.67-13.11-2.37-13.39-10.28-.08-2.36,1.66-3.17,1.97-4.47.73-3.17-2.95-6.85-5.91-7.51-1.54-.34-10.46-.54-17.31-.48l-31.55-19.81c-.68-1.39-1.82-2.08-3.41-2.38-5.41-1.05-30.3,5.05-36.65,7.18-20.4,6.84-25.69,20.42-21.4,41.21.67,3.22,3.66,8.59,3.74,11.16.09,2.79-4.2,7.57-4.03,11.05l15.07,5.28c.22-9.98,9.11-16.47,18.68-16.05,12.33.53,15.95,9.19,19.42,19.39,3.96.97,24.11-5.03,26.86-7.82.98-.99,1.46-4.7,2.97-5.07,1.71-.41,6.03,8.6,9.87,10.46,13.04,6.32,25.81-7.08,20.64-20.09,6.98,1.6,18.59-2.58,14.43-11.76ZM205.88,271.41c-5.86,6.67-15.5,6.89-22.53,11.79-8.09-14.17,1.75-28.11,17.39-28.67,1.55-.06,1.62.37,2.2,1.62.86,1.86,3.55,13.87,2.94,15.26ZM251.66,263.99c-3.5,1.89-24.15,7.36-28.98,8.29-.97.19-2.64.65-3.35.14l-5.33-20.7c.51-2,8.24-2.24,13.13-4.64l25.27,15.87c-.14.44-.35.82-.74,1.04Z"/>
  <path class="cls-4" d="M189.23,314.26l-.16-.03c8.31,4.1,17.59,6.22,25.92,8.29,5.06-18.59-20.95-28.73-25.77-8.26Z"/>
  <path class="cls-4" d="M642.51,344.39c-25.43-10.71-52.02-31.85-77.03-41.79-2.51-1-4.58-1.64-7.36-1.19l-206.39,62.97-136.8-41.56c.03-.1.04-.19.07-.29-8.33-2.07-17.61-4.2-25.92-8.29l-5.12-1.11-15.07-5.28c-9.3-1.54-19.42-8.38-28.93-5.92-23.25,13.73-48.17,25.14-71.35,38.91-8.33,4.94-15.6,9.58-4.92,18.13l69.88,24.87v61.54c4.43,3.91,10.01,1.64,14.99.54v-55.65l129.03,46.06c1.89.1,3.26-.74,4.76-1.7,17.1-10.96,34.45-29.75,51.43-41.69l3.22-1.6v75.16c9.71.77,19.31.13,28.84.65l.07-76.88,61.54,46.12,127.96-46.12v55.12c1.47,2.37,11.47,2.15,12.92,1.14l1.18-61.43,72.55-26.47c5.37-3.66,6.14-10.48.45-14.21ZM278.08,418.6l-3.58.51-189.11-69,56.8-32.06,3.62-.65,185.83,56.79-53.56,44.4ZM430.54,419.13c-3.01.57-5.09-1.65-7.33-3.22-17-12.01-33.72-27.9-49.81-41.18l184.87-58.05,61.38,33.96-189.11,68.49Z"/>
  <g>
    <g>
      <path class="cls-2" d="M219.09,505.78c47.05-2.67,49.54,67.69,3.13,68.61-46.03.91-47.4-66.1-3.13-68.61ZM218.27,515.87c-15.99,1.69-24.44,17.48-20.01,32.31,6.15,20.6,36.99,21.75,45.11,2.08,7.43-18-5.4-36.47-25.1-34.39Z"/>
      <path class="cls-1" d="M466.14,505.41c47.05-2.67,49.54,67.69,3.13,68.61-46.03.91-47.4-66.1-3.13-68.61ZM465.32,515.5c-15.99,1.69-24.44,17.48-20.01,32.31,6.15,20.6,36.99,21.75,45.11,2.08,7.43-18-5.4-36.47-25.1-34.39Z"/>
      <path class="cls-3" d="M272.48,506.94l23.31,52.08,22.1-52.08c1.61-.1,10.43-.37,10.84.98-3.63,9.41-7.66,18.66-11.64,27.92-6.9,16.09-14.21,35.75-22.24,50.93-5.71,10.8-14.68,13.14-26.31,10.6l.94-9.68c.57-.87,4.49.38,5.69.42,10.29.41,11.84-8.75,15.05-16.3l-28.93-63.23-.07-.89c3.63-1.16,7.48-.85,11.25-.76Z"/>
      <path class="cls-3" d="M541.03,531.93l19.98-24.68c3.63-.96,7.77-.46,10.97,1.63l-24.09,30.92,24.25,32.12c-3.46,1.44-7.42,2.85-11.13,1.66l-19.78-25.49-20.02,25.66c-3.66.57-7.7.1-10.86-1.88l.57-1.94,23.57-30.06-23.59-29.78v-1.22c3.24-2.14,7.34-2.37,11.12-1.8l19.02,24.85Z"/>
      <path class="cls-3" d="M153.67,485.04v21.83h23.05v9.3h-23.05v34.56c0,1.68,1.63,6.4,2.65,7.86,2.48,3.51,8.32,5.19,12.46,4.82,3.67-.32,6.8-2.48,10.36-3.18-.08,2.24,3.32,8.18,2.78,9.83-.43,1.3-9.4,3.63-11.12,3.86-11.1,1.51-22.52-2.67-26.45-13.88-.33-.95-1.6-5.4-1.6-6.08v-37.79h-11.32v-9.3h11.32v-18.79l10.92-3.03Z"/>
    </g>
    <path class="cls-4" d="M338.86,548.3c0,1.76,2.49,7.32,3.47,9.06,17.51,31,82.49,21.83,81.05-17.97-.9-24.84-28.31-36.68-50.16-32.73-9.01,1.63-17.42,6.3-23.44,13.15v-38.44h-10.92v66.94ZM378.81,515.88c13.74-1.22,30.56,5.79,33.13,20.8,3.32,19.36-16.53,30.72-33.61,29.55-39.16-2.67-34.03-47.3.47-50.35Z"/>
  </g>
</svg>