<?xml version="1.0" encoding="UTF-8"?>
<svg id="Capa_1" data-name="Capa 1" xmlns="http://www.w3.org/2000/svg" xmlns:xlink="http://www.w3.org/1999/xlink" viewBox="0 0 283.46 283.46">
  <defs>
    <style>
      .cls-1 {
        fill: #fff;
      }

      .cls-2 {
        fill: url(#Degradado_sin_nombre_98);
      }
    </style>
    <linearGradient id="Degradado_sin_nombre_98" data-name="Degradado sin nombre 98" x1="39.89" y1="145.44" x2="243.24" y2="145.44" gradientUnits="userSpaceOnUse">
      <stop offset="0" stop-color="#d84565"/>
      <stop offset=".2" stop-color="#b25a81"/>
      <stop offset=".43" stop-color="#8f6d9d"/>
      <stop offset=".64" stop-color="#757cb0"/>
      <stop offset=".84" stop-color="#6684bc"/>
      <stop offset=".99" stop-color="#6188c1"/>
    </linearGradient>
  </defs>
  <rect class="cls-2" x="39.89" y="44.01" width="203.36" height="202.85" rx="12" ry="12"/>
  <g>
    <path class="cls-1" d="M207.98,188.5c0,3.06-2.36,5.09-4.88,6.12l-36.87,15.06-19.66,8.06c-2,.82-3.98.54-5.93-.26l-55.99-22.92c-2.92-1.01-5.01-3.55-5.01-6.71v-26.37s-17.61-5.93-17.61-5.93c-1.24-.42-1.77-1.9-1.8-2.89-.05-1.47.67-2.31,1.79-3.17l17.64-13.57c.57-.44,1.34-.68,2.04-.45l12.64,4.15,1.14-4.22c-2.25-1.57-.36-4.68,1.21-7.09,1.73-2.31,4.27-3.81,7.19-4.14-1.04-1.39-1.85-2.8-2.58-4.38-2.31.11-3.96-1.54-4.24-3.78l.02-5.44c0-2.06,1.55-3.59,3.53-3.84.84-9.52,6.87-16.64,16.13-18.74-.04-3.27,1.75-6.17,4.8-7.37,5.6-2.21,12.04.81,14.08,6.37,1.72.31,3.12.99,4.17,2.23,2.26,2.66,1.89,6.66-.95,8.73,1.48,2.72,2.34,5.56,2.59,8.75,1.91.24,3.21,1.6,3.46,3.53l-.07,5.86c-.03,2.2-1.98,3.73-4.04,3.7-.68,1.57-1.48,2.9-2.5,4.34,3.76.4,6.87,2.86,8.57,6.45,2.06-5.44,6.27-8.22,12.17-8.44,2.8-5.99,6.84-10.56,13.34-12.53,4.92-1.49,10.11-1.74,15.12-.57,4.28,1,7.42,4,9.04,8.02,1.15,2.85,1.71,5.74,2.26,8.85l3.22.63c3.11.61,5.56,3.18,5.62,6.36l.06,3.07c.5.04,1.1.13,1.49.44l17.77,13.64c1.05.81,1.32,2.09,1.11,3.28-.23,1.28-1.18,2.05-2.49,2.5l-17.53,6.01-.05,26.65ZM137.4,90.43c-1.62-1.24-3.5-.74-3.95-2.06-1.38-4.06-5.49-6.47-9.68-5.71-2.57.46-4.44,2.48-4.48,4.98,7.27-.52,14.01,2.51,18.18,8.2,1.79-1.51,1.65-3.96-.07-5.41ZM122.85,95.2c5.8,1.28,10.85,4.04,15.33,8.04-1.93-7.51-8.51-12.52-16.04-12.99-8.39-.53-16.06,4.72-18.23,12.94,4.4-3.99,9.57-6.75,15.34-7.98,1.2-.26,2.3-.29,3.61,0ZM138.23,113.16l.04-3.38c.07-.72.33-1.39.81-2.08-4.38-5.02-10.29-8.53-16.8-9.99-1-.23-1.86-.15-2.87.08-6.39,1.46-12.18,4.96-16.46,9.93.48.72.77,1.46.78,2.26l.03,3.22c11.23-3.58,23.27-3.62,34.48-.03ZM101.12,117.28l.1-6.94-.3-1.08c-.69-.03-1.34.61-1.34,1.27l.02,5.36c0,.74.55,1.39,1.52,1.39ZM142.44,115.45v-4.73c0-.76-.56-1.5-1.36-1.45-.11.28-.27.93-.27,1.25l.06,6.79c1.15-.1,1.57-.91,1.57-1.86ZM197.04,143.29l6.41-1.8c.63-.18,1.15-.63,1.1-1.35l-2.62-.36c-1.71-.23-2.79-1.64-2.84-3.33-.05-1.6.54-3.24,2.05-3.94,1.09-.51,2.32-.28,3.69-.12-.27-1.36-1.27-2.68-2.73-2.99l-3.16-.67c-1.63-.34-2.63-1.33-2.88-2.91-.42-2.72-1.05-5.35-2.06-7.87-1.36-3.36-4-5.62-7.56-6.36-4.28-.89-8.71-.72-12.91.52-6.26,1.84-9.71,5.95-12.32,11.75-.38.84-1.53,1.03-2.38,1.04-3.32.05-6.39,1.46-8.28,4.19-1.84,2.65-3.05,7.46-.34,9.31.73.49,1.61.72,2.6.89.38-3.46,2.82-6.24,5.9-7.24,3.42-1.1,7-.06,9.26,2.6,1.64,1.93,2.35,4.25,2.09,6.75l9.73,1.1c.53-4.71,4.55-8,9.22-7.61,4.49.37,7.74,4,8.03,8.39ZM124.59,127.79c3.72-.46,7-2.43,8.91-5.57,1.35-2.23,1.68-4.8,1.62-7.42-9.32-2.37-18.94-2.37-28.23-.01.06,5.79,2.16,10.01,7.47,12.31,3.36.98,6.67,1.21,10.25.69ZM105.95,122.59c-.92-2.36-1.48-4.55-1.49-7l-.65.15c-.1.02-.06.41-.07.53l-.23,2.19c.58,1.48,1.33,2.9,2.44,4.12ZM138.6,118.34c-.54-1.29-.13-2.6-.52-2.65l-.46-.06c-.01,2.54-.59,4.78-1.56,7.16,1.2-1.27,2-2.84,2.55-4.44ZM105.95,134.43c1.01-2.45,1.39-5.02.69-7.61-4.47-1.09-8.47,2.01-9.66,6.5,2.43,1.31,8.19,3,8.98,1.1ZM138.04,135.3c2.59-.13,4.99-.72,7.19-1.96-1.18-4.45-5.1-7.52-9.63-6.57-.75,2.44-.33,4.97.57,7.33.31.81.82,1.25,1.87,1.2ZM136.08,142.08l-.47-4.76c-2.4-1.75-3.03-6.36-2.83-9.4l-1.8.66c-6.18,2.57-13.01,2.59-19.27.22l-2.29-.87c.26,2.4-.16,4.67-1.01,6.91-.36,1-.93,1.84-1.83,2.45-.3,2.83-.57,5.59-.43,8.52,3.85.6,7.54.92,11.31,1,2.29-1.59,5.07-1.46,7.34.02,3.81-.11,7.41-.44,11.21-1.02.17-1.27.2-2.41.07-3.75ZM167.19,142.32c.72-2.12.15-4.29-1.19-5.89-1.23-1.46-3.22-2.36-5.23-2.12-3.13.37-5.29,2.83-5.45,5.77s1.92,5.7,4.81,6.28c3.01.61,6.03-1.02,7.06-4.05ZM204.93,137.6l.16-2.65c-.99-.11-2.02-.38-2.91-.09-.69.22-.74,2.07-.11,2.31.89.35,1.86.36,2.87.44ZM103.51,144.61l.5-6.77c-2.18-.14-4.18-.61-6.26-1.41-.64,2.14-1.2,4.23-1.54,6.42l7.31,1.76ZM146.04,142.82l-1.53-6.32c-2.24.85-4.2,1.24-6.34,1.36l.59,6.78,7.28-1.82ZM190.88,145.01l3.48-.96c.2-3.51-2.36-6.39-5.79-6.6-2.34-.14-4.5,1.21-5.49,3.05-1.18,2.2-1.02,4.73.41,6.6l3.44-.99c-1.66-.96-1.98-2.71-1.18-4.14s2.65-1.82,4-1.02,1.9,2.43,1.13,4.06ZM139.48,156.84c-.51,3.23-3.12,4.93-6.21,4.36l-39.22-12.66c-1.22-.39-1.58-1.99-1.54-2.97-.09-1.35.46-2.08,1.54-3.13l-12.83-4.2-17.93,13.81c-.11.08-.34.46-.26.57l.36.47,19.91,6.71,42.51,14.52,16.27-15.14c-1.08-.54-1.77-1.31-2.61-2.35ZM162.75,174.63l44.69-15.47,17.44-6.02c.18-.06.54-.37.46-.51l-.27-.5-17.6-13.5-.62,2.91c-.28,1.31-1.32,2.06-2.53,2.5l-14.17,3.97-43.13,11.9,15.73,14.73ZM180.84,147.83c-.51-1.07-.74-1.75-.96-2.64l-10.53-1.16c-1.73,3.48-5.27,5.57-9.11,5.02-3.67-.52-6.61-3.29-7.29-7.03-1.88-.26-3.41-.82-4.88-1.93l.41,2.75c.75.45,1.17,1.07,1.35,1.87.28,1.67.06,3.29-.65,4.84,1.23,2.21,1.25,4.64-.03,6.99l31.69-8.72ZM187.7,142.69c-.45.3-.47,1.08-.17,1.4.32.35.96.43,1.37.13.34-.25.49-.91.29-1.22-.3-.47-.95-.67-1.49-.31ZM103.09,148.7l.4-1.78-8.29-1.98c-.42.23-.34,1.18.14,1.33l7.75,2.42ZM147.13,148.25c.45-1.23.57-2.22.17-3.39l-8.57,2.04.41,1.69,7.99-.35ZM115.83,151.51c-.27-.98-.25-1.76-.04-2.6-3.42-.12-6.56-.42-9.87-.92-.23.41-.33.93-.3,1.54l5.48,1.71c1.42.44,3.11.16,4.72.28ZM123.58,151.43c.93-.72.82-2-.02-2.66-1.4-1.1-3.38-1.16-4.83-.08-.51.38-.8,1.08-.74,1.69.15,1.59,3.4,2.74,5.59,1.04ZM136.39,150.64c.5-.99.41-1.86-.02-2.69-3.32.56-6.63.85-9.96.99.27.91.27,1.65,0,2.59,3.4-.05,6.65-.32,9.98-.89ZM142.82,156.85c.77.36,1.63.37,2.4.03,2.49-1.11,3.27-4.28,1.67-6.39l-7.27.28c-.85,1.23-1.23,2.2-.48,3.43.54-.15,1.03-.31,1.36-.25.97.17.84,2.21,2.34,2.91ZM134.1,158.75c1.48.08,3.01-.72,2.98-2.18-.03-1.29-.56-2.62-.97-3.79-3.87.5-7.59.77-11.43.78-.97.53-1.91.78-3.14,1.07l12.56,4.12ZM205.27,162.85l-21.12,7.24-20.06,6.92c-.97.42-1.87.35-2.83-.12l-16.03-14.94v53.24s57.91-23.62,57.91-23.62c1.21-.81,1.92-1.9,2.12-3.34v-25.38ZM142.51,215.13v-52.56s-14.57,13.43-14.57,13.43c-.83.84-1.76,1.2-2.97.91l-42.64-14.48v24.86c0,2.15,1.13,3.89,3.14,4.6l15.65,6.34,26.78,10.95,14.61,5.96Z"/>
    <path class="cls-1" d="M83.62,110.91c.79.37.95,1.22.74,1.87s-1.12,1.2-1.9.85l-9.12-4.15c-.86-.39-1.42-1-1.15-1.9.22-.75,1.18-1.42,2.04-1.02l9.39,4.35Z"/>
    <path class="cls-1" d="M177.27,85.02c-.56.84-1.37,1.05-2.1.71-.84-.39-1.18-1.44-.64-2.24l5.35-7.95c.5-.74,1.44-.85,2.12-.47.8.44.93,1.5.41,2.27l-5.15,7.67Z"/>
    <path class="cls-1" d="M145.27,75.65c0,.87-.77,1.31-1.38,1.34-.66.04-1.56-.37-1.56-1.23v-10.36c0-.77.65-1.29,1.3-1.4.58-.1,1.62.28,1.62,1.11l.02,10.54Z"/>
    <path class="cls-1" d="M110.57,74.88c.55.86.53,1.74-.22,2.28-.65.47-1.68.48-2.19-.31l-4.74-7.26c-.53-.81-.43-1.81.36-2.33.89-.59,1.8-.16,2.36.7l4.43,6.92Z"/>
    <path class="cls-1" d="M208.39,113.38c-.85.46-1.61.4-2.12-.27-.47-.62-.44-1.69.36-2.13l7.74-4.27c.76-.42,1.62-.35,2.11.31.42.58.46,1.77-.34,2.19l-7.75,4.17Z"/>
    <path class="cls-1" d="M163.92,142.15c1-1.29.6-3.04-.44-4.01-1.16-1.09-2.87-1.11-4.12-.04-1.43,1.22-1.34,3.41,0,4.55,1.38,1.17,3.33,1.08,4.56-.5Z"/>
    <path class="cls-1" d="M187.73,128.58l-19.48-2.27c-1.48-.17-2.72-1.35-2.29-2.94,1.13-4.14,4.31-7.28,8.44-8.53,3.36-1.01,6.87-1.26,10.31-.59,2.08.41,3.61,1.87,4.39,3.75,1.05,2.53,1.52,5.13,1.54,7.91.01,1.45-1.25,2.86-2.91,2.67ZM188.08,125.92c-.11-2.44-.52-4.49-1.25-6.53-.47-1.19-1.27-2.14-2.51-2.55-6.31-1.08-13.35.48-15.75,6.8l19.51,2.28Z"/>
    <path class="cls-1" d="M127.26,137.93c-.03,3.19-3.14,5.46-6.16,6.48-2.71-.92-5.99-3.23-6.03-5.94l-.07-3.89c-.01-.6.68-1.12,1.29-1.08,1.71.11,3.24-.1,4.81-.83,3.16,1.69,6.02-.18,6.2,2.1l-.03,3.17ZM121.03,142.28c3.62-1.48,4.52-3.18,4.1-6.8-1.55.01-2.74-.17-4.04-.52-1.35.37-2.64.54-4.05.54l.03,2.62c.02,1.79,1.97,3.3,3.95,4.15Z"/>
    <path class="cls-1" d="M123.14,121.45c.43-.57.77-.89,1.35-.69.46.16.7.9.43,1.39-.94,1.76-2.97,2.44-4.91,2.04-1.3-.27-2.45-.95-2.95-2.23-.15-.38.15-1.08.47-1.19.53-.18.94.08,1.29.6.91,1.32,3.29,1.42,4.32.07Z"/>
    <path class="cls-1" d="M128.6,118.29c-.63.72-1.52.79-2.2.39s-1.06-1.16-.81-2.04c.2-.7.81-1.37,1.8-1.27.59.06,1.22.57,1.43,1.04.24.56.2,1.38-.23,1.87Z"/>
    <path class="cls-1" d="M115.23,118.87c-1.15.28-2.07-.58-2.13-1.56s.58-1.93,1.7-1.94c.88-.01,1.54.7,1.67,1.39.18.91-.19,1.85-1.25,2.1Z"/>
    <path class="cls-1" d="M122.17,108.82c0,.56-.93.93-1.34.88s-1.12-.54-1.12-1.08l-.02-8.6c0-.75.74-1.29,1.3-1.26.92.05,1.25.75,1.24,1.6l-.06,8.46Z"/>
    <path class="cls-1" d="M127.94,108.62c0,.79-.59,1.32-1.22,1.35-.68.03-1.31-.54-1.31-1.31v-6.41c0-.7.55-1.26,1.15-1.31.7-.07,1.36.5,1.36,1.28v6.41Z"/>
    <path class="cls-1" d="M116.52,108.43c0,.89-.51,1.46-1.28,1.48-.62.02-1.29-.49-1.29-1.25v-6.41c0-.71.54-1.25,1.15-1.3.5-.04,1.36.43,1.37,1.11l.05,6.37Z"/>
    <path class="cls-1" d="M133.59,109.33c0,.75-.6,1.28-1.16,1.32-.66.05-1.36-.46-1.36-1.22v-4.45c-.02-.59.77-1.13,1.2-1.15.65-.03,1.3.5,1.3,1.22l.02,4.28Z"/>
    <path class="cls-1" d="M110.82,109.17c0,.92-.48,1.5-1.3,1.51-.67.01-1.28-.63-1.26-1.42l.1-4.59c.01-.58.93-.93,1.33-.84.62.13,1.1.63,1.11,1.34l.02,4.01Z"/>
    <path class="cls-1" d="M163.92,142.15c-1.23,1.57-3.18,1.66-4.56.5-1.34-1.14-1.43-3.32,0-4.55,1.24-1.07,2.96-1.05,4.12.04,1.04.98,1.45,2.73.44,4.01ZM160.93,139.47c-.54.25-.68.99-.45,1.34.35.51.97.63,1.29.51.69-.39.73-.94.54-1.44-.3-.39-.91-.61-1.39-.4Z"/>
  </g>
</svg>