<?xml version="1.0" encoding="UTF-8"?>
<svg id="Capa_1" data-name="Capa 1" xmlns="http://www.w3.org/2000/svg" xmlns:xlink="http://www.w3.org/1999/xlink" viewBox="0 0 283.46 283.46">
  <defs>
    <style>
      .cls-1 {
        fill: #fff;
      }

      .cls-2 {
        fill: url(#Degradado_sin_nombre_101);
      }
    </style>
    <linearGradient id="Degradado_sin_nombre_101" data-name="Degradado sin nombre 101" x1="39.89" y1="145.44" x2="243.24" y2="145.44" gradientUnits="userSpaceOnUse">
      <stop offset="0" stop-color="#d84565"/>
      <stop offset=".2" stop-color="#b25a81"/>
      <stop offset=".43" stop-color="#8f6d9d"/>
      <stop offset=".64" stop-color="#757cb0"/>
      <stop offset=".84" stop-color="#6684bc"/>
      <stop offset=".99" stop-color="#6188c1"/>
    </linearGradient>
  </defs>
  <rect class="cls-2" x="39.89" y="44.01" width="203.36" height="202.85" rx="12" ry="12"/>
  <g>
    <path class="cls-1" d="M80.23,111.31l37.63-8.77c4.32-1.01,8.4,1.49,9.4,5.83l6.53,28.52,1.83-27.75c-2.22-1.03-3.24-3.31-2.71-5.55s2.49-3.7,4.94-3.77l17.23,1.15c2.27.15,3.97,2.16,4.25,4.09.33,2.34-.95,4.47-3.26,5.25l-1.59,24.94-1.01,15.98c-.38,5.97-5.26,10.33-11.36,9.99l2.52.9c.71.25,1.55.25,2.32,0l16.84-5.47c-.5-.73-.6-1.52-.35-2.35,1.68-5.43,7.46-7.64,13-6.08l.7-3.19c-3.97-1.28-7.59-3.21-10.75-5.99-1.13-1-1.35-2.76-.4-3.97l2.03-2.59c-4.15-4.42-6.67-10.06-6.86-16.2-.24-7.85,3.38-15.51,9.63-20.26,8.07-6.14,19.07-6.75,27.89-1.82l1.65-2.3c1.24-1.73,3.33-2.34,5.06-.99,14.26,11.12,16.26,32.09,3.74,45.44-5.97,6.36-14.26,9.98-23,10.04l-.47,3.11,23.51-7.61c1.97-.64,3.9,0,5.45,1.22l14.27,11.3c.78.62.96,1.87.83,2.78-.11.8-.64,1.98-1.65,2.33l-16.63,5.83-.07,26.49c0,2.24-1.44,4.86-3.58,5.7l-40.19,15.75-19.89,7.9c-1.56.62-3.24.56-4.79-.06l-21.09-8.52-36.6-14.37c-2.86-.76-4.65-2.96-5.16-5.88v-27.06s-16.45-5.78-16.45-5.78c-1.15-.4-1.67-1.84-1.71-2.76-.07-1.38.56-2.29,1.6-3.11l12.78-10.22c1.04-.84,2.07-1.47,3.46-1.78l-4.92-21.61c-.84-3.7,1.57-7.86,5.39-8.75ZM168.41,136.9c4.33,3.67,9.4,5.8,14.96,6.35,12.66,1.26,24.81-6.25,29.27-18.15,4.31-11.5.46-24.47-9.37-31.94l-2.09,2.75c6.12,4.54,9.56,11.49,9.8,18.85.25,7.54-3.04,14.71-8.84,19.53-9.24,7.68-22.61,7.74-31.9.21l-1.84,2.41ZM202.23,130.05c-1.19.02-1.65.74-2.31,1.32-2.37,2.1-5.6,2.97-7.58.81-.84-.92-1.13-2.19-.93-3.5.55-3.65,4.26-4.97,4.81-7.22.14-.57,0-1.32-.33-1.74-.25-.32-.92-.62-1.41-.69-3.62-.52-5.61-3.78-4.65-7.32.09-.33.11-1.09-.05-1.36-.52-.88-4.26-1.06-4.78-5.09-.49-3.83,2.66-7.17,6.58-6.92l2.3.15-.95-3.52c-5.05-1.55-10.36-1.39-15.27.65.31,1.14.65,2.27.7,3.43.14,3.02-1.69,5.47-4.48,6.46-1.46.52-2.94,1.16-2.44,2.54.41,1.15,4.17.67,4.91,5.13.37.36,1.04.65,1.56.81,1.41.43,2.53,1.38,3,2.48,1.24,2.93-.47,5.79-3.78,6.89-.95.32-1.56,1.15-1.46,2.21.2,2.02-.67,3.86-2.47,4.84-.57.31-1.13.69-1.63,1.18,8.94,7.91,22.72,7.1,30.68-1.56ZM198.94,119.2c.78,2.58-.31,4.95-2.21,6.6-1.46,1.26-3.11,3.17-2.19,4.38.63.82,2.27.02,3.5-1.06.83-.73,1.76-1.36,2.78-1.77,3.12-1.23,2.65-4.58,6.33-5.9,2.79-9.81-1.65-20.2-10.67-24.95l.22,1.83c.22,1.84-1.31,3.28-3.12,3.13l-2.38-.19c-1.12-.09-2.17.59-2.69,1.28-.69.9-.9,1.95-.46,2.99.38.9,1.35,1.4,2.27,1.7,1.71.57,2.8,2.07,2.5,3.9l-.3,1.83c-.28,1.74.9,2.99,2.58,3.24,1.7.25,3.29,1.24,3.82,3ZM178.32,118.67c.2-1.2-.85-1.92-1.85-2.13-1.59-.34-2.79-1.41-3.02-3.02-.36-2.45-3.48-1.46-4.7-4.24s.58-5.46,3.67-6.32c1.29-.36,2.32-1.14,2.75-2.17.54-1.31.31-2.63-.36-3.77-4.53,2.58-7.64,6.57-9.39,11.38-2.59,7.14-1.09,15.08,3.83,20.89l1.92-1.05c1.08-.59,1.71-1.42,1.59-2.66-.23-2.34,1.11-4.21,3.35-4.89.96-.29,2.03-.87,2.23-2.01ZM156.41,105.58c-.1-.82-.92-1.61-1.73-1.66l-17.03-1.06c-1.09-.07-1.93.93-1.97,1.8-.03.68.61,1.87,1.63,1.94l16.92,1.08c1.19.08,2.32-.88,2.17-2.11ZM80.24,130.3l46.42-10.77-2.4-10.56c-.62-2.74-3.43-4.13-6.08-3.35l-35.87,8.31c-3.12.37-5.14,3.05-4.43,6.14l2.37,10.23ZM152.14,124.82l.93-14.17-14.51-.95-.91,14.18c2.63-.5,5.03-.03,7.47.76,2.32.75,4.66.99,7.02.17ZM131.51,140.74l-4.19-18.26-4.74,1.07,5.34,23.49c2.9-.59,4.51-3.39,3.6-6.29ZM116.67,137.91l2.53,11.17,6.03-1.43-5.35-23.5-4.23,1.01,2.32,10.39c.27,1.02-.19,1.92-1.29,2.37ZM116.54,149.68l-2.48-11.15c-.79-.03-1.83-.31-2.02-1.11l-2.48-10.86-2.72.65,2.34,10.16c.25,1.09-.1,2.08-1.28,2.5l2.57,11.2,6.06-1.38ZM150.42,152l1.51-23.96c-2.88.63-5.56.22-8.25-.65-2.03-.66-4.05-.94-6.25-.43l-1.41,24.01c-.25,4.2,3.61,7.51,7.59,7.17,3.48-.29,6.12-2.73,6.8-6.14ZM107.43,149.96l-2.11-9.48c-1.23.15-1.98-.55-2.22-1.62l-2.33-10.28-2.71.67,2.38,10.44c.22.96-.32,1.83-1.25,2.18l1.29,5.84,6.95,2.25ZM96.56,142.45c-1.09.21-1.85-.35-2.19-1.27l-2.42-10.52-3.54.8,3.06,13.35,6.01,1.9-.93-4.26ZM88.37,143.7l-2.65-11.61-4.79,1.08,2,8.84,5.44,1.7ZM126,177.28l15.42-12.98-24.17-7.94-35.8-11.68c-1.11-.27-1.94.1-2.78.78l-13.98,11.25,59.69,21.02c.39.14,1.32-.19,1.63-.45ZM208.4,163.28l18.54-6.51-14.27-11.32c-.88-.82-1.96-1.02-3.12-.57l-59.5,19.41,15.47,12.91c.48.4,1.24.69,1.93.45l40.96-14.38ZM182.55,149.71l.61-3.46-3.21-.46-.6,3.09,3.2.83ZM138.02,159.91c-3.33-2.29-5.25-5.73-5.02-9.64l.17-3.02c-1.35,1.56-2.93,2.38-4.9,2.83l-11.76,2.75,21.51,7.08ZM178.68,151.79c-4.86-1.65-9.77-2.07-12.2,2.69l2.36.55,9.83-3.24ZM208.47,166.45l-28.52,10.01-11.02,3.84c-1.77.63-3.61.5-5.17-.61l-16.73-13.89-.02,52.46,58.07-22.8c1.94-.45,3.2-1.9,3.33-3.88l.05-25.13ZM83.08,191.67c0,1.98,1.51,3.34,3.19,3.75l28.28,10.99,29.53,11.89.05-52.27-16.48,13.75c-1.5,1.25-3.66,1.01-5.33.43l-10.59-3.73-28.71-10.1.04,25.3Z"/>
    <path class="cls-1" d="M147.21,87.63l-4.23,2.51c-1.03.61-2.48.42-3.37-.25-.94-.7-1.47-1.94-1.19-3.2l1.04-4.73-3.76-3.33c-.45-.4-.67-1.36-.73-1.98-.15-1.64.97-3.18,2.67-3.34l4.78-.45,2-5.23c.42-1.09,1.75-1.54,2.79-1.54s2.41.55,2.84,1.68l1.95,5.12,4.94.46c1.14.11,1.95,1.1,2.25,1.91.4,1.07.31,2.55-.57,3.32l-3.78,3.32,1.08,4.7c.3,1.33-.23,2.58-1.23,3.29s-2.39.79-3.5.13l-4.01-2.41ZM148.58,84.87l4.35,2.55-1.15-5.24c-.21-.97.12-1.69.82-2.31l3.82-3.41-5.45-.61c-.88-.1-1.44-.58-1.72-1.4-.62-1.78-1.11-3.43-2.1-5.28l-1.98,5.24c-.37.98-1.03,1.39-2.07,1.47-1.75.12-3.31.21-5.18.58l4.07,3.63c.52.46.73,1.25.58,1.96l-1.16,5.41,5.18-3.03c.59-.35,1.47.14,1.99.44Z"/>
    <path class="cls-1" d="M181.5,84.3c-.57.99-1.41,1.4-2.33,1.03s-1.36-1.5-.82-2.44l6.08-10.53c.51-.88,1.41-1.27,2.38-.82.71.33,1.25,1.43.74,2.3l-6.06,10.45Z"/>
    <path class="cls-1" d="M117.71,83.03c.52.98-.31,2.08-.97,2.31-1.07.38-1.83-.17-2.32-1.11l-5.34-10.19c-.46-.88-.33-1.86.49-2.41.74-.49,1.97-.37,2.45.54l5.69,10.84Z"/>
    <path class="cls-1" d="M95.14,123.3c-2.27-.15-3.8-2.03-3.88-4.03-.08-2.1,1.34-4,3.48-4.35,2.52-.41,4.66,1.43,4.85,3.82s-1.76,4.75-4.46,4.57ZM94.88,117.75c-.79.31-1.1,1.3-.82,1.93.36.81,1.26,1.01,1.83.81.96-.34,1.19-1.25.92-1.93-.31-.77-1.15-1.11-1.92-.81Z"/>
    <path class="cls-1" d="M102.14,118.37c-.84-2.07-.1-4.27,1.63-5.33,1.83-1.11,4.16-.7,5.49.95s1.22,4-.32,5.61c-.98,1.03-2.36,1.49-3.87,1.17-1.11-.23-2.39-1.05-2.94-2.4ZM105.43,115.25c-.89.34-1.13,1.35-.78,2.05s1.13.96,1.88.68,1.12-1.12.81-1.91c-.26-.66-1.06-1.16-1.91-.83Z"/>
    <path class="cls-1" d="M119.06,117.54c-1.56,1.32-3.74,1.18-5.25-.02-1.46-1.17-1.95-3.22-1.15-5.04.72-1.63,2.36-2.52,4.04-2.42s3.18,1.24,3.69,2.75c.58,1.71.11,3.52-1.33,4.74ZM115.89,112.9c-.89.38-1.09,1.36-.77,2.02.35.72,1.21.94,1.86.7.84-.31,1.17-1.17.84-1.95-.29-.66-1.1-1.13-1.92-.78Z"/>
    <path class="cls-1" d="M144.76,134.81c1.93-.34,3.59,1.08,3.85,2.76.28,1.85-.99,3.52-2.75,3.85s-3.51-.89-3.83-2.62c-.34-1.84.74-3.63,2.74-3.99ZM144.82,137.34c-.49.25-.55.99-.26,1.34.25.31.94.4,1.28.17.29-.19.41-.85.24-1.16-.21-.37-.84-.57-1.26-.36Z"/>
    <path class="cls-1" d="M144.83,150.04c-.75,1.2-1.96,1.76-3.24,1.64-1.21-.11-2.38-.98-2.75-2.28-.41-1.46.19-3,1.39-3.74,1.25-.77,2.82-.65,3.93.34,1.08.95,1.51,2.68.66,4.04ZM141.52,147.76c-.39.27-.45.93-.22,1.17.28.3.89.35,1.12.17.29-.23.42-.84.27-1.1-.18-.3-.86-.46-1.18-.24Z"/>
  </g>
</svg>