<?xml version="1.0" encoding="UTF-8"?>
<svg id="Capa_1" data-name="Capa 1" xmlns="http://www.w3.org/2000/svg" xmlns:xlink="http://www.w3.org/1999/xlink" viewBox="0 0 283.46 283.46">
  <defs>
    <style>
      .cls-1 {
        fill: #fff;
      }

      .cls-2 {
        fill: url(#Degradado_sin_nombre_89);
      }
    </style>
    <linearGradient id="Degradado_sin_nombre_89" data-name="Degradado sin nombre 89" x1="39.89" y1="145.44" x2="243.24" y2="145.44" gradientUnits="userSpaceOnUse">
      <stop offset="0" stop-color="#d84565"/>
      <stop offset=".2" stop-color="#b25a81"/>
      <stop offset=".43" stop-color="#8f6d9d"/>
      <stop offset=".64" stop-color="#757cb0"/>
      <stop offset=".84" stop-color="#6684bc"/>
      <stop offset=".99" stop-color="#6188c1"/>
    </linearGradient>
  </defs>
  <rect class="cls-2" x="39.89" y="44.01" width="203.36" height="202.85" rx="12" ry="12"/>
  <g>
    <path class="cls-1" d="M211.08,189.93c0,2.61-1.4,5.7-3.85,6.71l-59.66,24.55c-2.39.98-4.49,1.11-6.91.08l-18.77-7.91-40.13-16.8c-2.53-1.06-3.88-4.13-3.88-6.75v-29.04s-18.64-7-18.64-7c-1.18-.44-1.7-1.97-1.78-2.89-.12-1.38.46-2.38,1.48-3.2l17.72-14.3c1.25-1.01,2.46-1.46,4.03-.89l15.12,5.49c1.17-3.45,3.84-6.17,7.43-7.23l2.23-25.11.08-8.74-8.78,1.36c-1.74,2.24-4.5,3.24-7.18,2.39-2.47-.77-4.33-2.94-4.62-5.71-.28-2.67,1-5.18,3.17-6.45,2.44-1.43,5.26-1.15,7.49.59l29.27-4.24c1.65-2.74,4.91-3.67,7.75-2.34,1.97.93,3.2,2.72,3.55,4.61.43,2.3-.32,4.46-1.95,5.96-2.25,2.09-5.21,1.94-7.7.47l-11.16,1.8-.05,11.2-.96,16.46c1.55.88,2.66,2.07,3.46,3.61l3.34,6.38c1.9.95,4.02,1.43,6.18,1.47l21.72.43c2.57-13.64,14.53-22.47,28.21-20.54,11.58,1.87,19.16,11.3,19.97,22.79l11.97-4.3c1.52-.55,2.9.07,4.07,1.07l16.83,13.81c1.03.85,1.57,1.94,1.41,3.31-.11.96-.68,2.38-1.87,2.84l-18.52,7.06-.03,28.94ZM130.83,91.66c2.01-.46,2.89-2.42,2.41-4.23-.42-1.6-2.02-2.89-3.86-2.48-1.85.41-2.84,2.28-2.41,4.11.37,1.57,1.93,3.04,3.85,2.6ZM112.42,104.82l.02-10.42c0-.74.37-1.58,1.23-1.72l10.89-1.78c-.35-1.08-.51-1.93-.55-2.98l-26.57,3.86c.37,1.16.46,2.05.43,3.36l8.36-1.29c.48-.07,1.19,0,1.54.23.31.21.64.86.64,1.31v9.34s4,.09,4,.09ZM91.76,97.99c2.31-.22,3.54-2.26,3.25-4.26-.3-2.03-2.18-3.54-4.31-3.1-2.02.42-3.17,2.31-2.82,4.26.31,1.72,1.82,3.3,3.88,3.1ZM111.01,128.54l1.4-20.75-4.2-.13-2.03,22.58,4.35.74c-.01-.64.41-1.52.48-2.44ZM184.72,127.35c2.75-.11,4.98.47,7.43,1.41-2.02-4.16-5.12-7.35-9.05-9.42-4.18-2.04-8.72-2.83-13.46-1.94,2.81,1.08,5.13,2.81,6.92,5.26,3.54-.82,7.02,1.15,8.16,4.69ZM172.13,126.94c.41-1.35,1-2.16,1.84-2.99-2.54-3.07-6.21-4.77-10.15-4.63-6.9,3.49-11.44,10.19-12.12,18.02,4.63-6.75,12.23-10.59,20.44-10.4ZM181.15,131.44c.94-.99,1.18-2.34.71-3.5s-1.41-1.98-2.29-2.28c-1.33-.44-2.56-.29-3.59.48-1.17.86-1.62,2.44-1.12,3.79.46,1.25,1.53,2.12,2.56,2.39,1.37.35,2.77.14,3.74-.89ZM117.87,141.12c1.53.37,2.66.6,4.28.55l-6.42-12.73-1.6-2.46-.18,3.02c-.08,1.32-1.31,1.53-1.35,2.74,3,2.1,4.67,5.26,5.27,8.88ZM168.63,147.45c2.33-4.52,4.18-8.87,5.83-13.42-1.43-1.04-2.22-2.45-2.58-4.18-4.02-.08-7.83.95-11.3,3.01-4.05,2.42-7.03,6.08-8.61,10.55.57,3.16,1.78,5.97,3.68,8.6l12.98-4.57ZM194.47,138.23l-.74-4.98c-2.58-2.1-5.7-3.13-8.9-2.95-.22,1.03-.55,1.82-1.12,2.66,1.83,2.21,3.16,4.77,4.09,7.61l6.67-2.35ZM112.03,143.95l2.76.96c1.33-5.67-2.92-11.77-8.58-11.66-3.57.07-6.54,2.41-7.66,5.74l4.48,1.65c.74-1.71,2.14-2.76,3.74-2.98,1.82-.25,3.51.57,4.48,2.09.82,1.29,1.08,2.71.77,4.2ZM185.15,141.57c-.88-2.6-2.03-4.79-3.6-6.82-1.52.66-3,.77-4.51.54l-4.41,10.73,12.53-4.45ZM123.44,174.02l17.67-16.41-46.4-16.81-15.47-5.66-18.76,15.1c-.27.22-.01.91.34.98,20.37,7.5,40.52,15.26,60.7,23.23.75.3,1.26.17,1.91-.43ZM228.19,151.33c.23-.09.52-.46.49-.64-.02-.14-.2-.45-.35-.57l-17.87-14.59-62.5,22.3,17.89,16.14c.55.48,1.09.84,1.83.56l60.52-23.2ZM148.7,137.84l-20.55-.37-5.11-.54,2.4,4.91,23.44.5-.18-4.49ZM109.17,142.86c.15-1.3-.51-1.88-1.32-2.3-.88-.16-1.63.2-2.05,1.1l3.37,1.2ZM152.81,153.01c-1.62-2.37-2.76-4.91-3.4-7.75l-26.52-.56-5.07-.5-.22,1.73,26.06,9.41c.85.31,1.57.33,2.39.04l6.77-2.38ZM208.18,189.92v-27.8s-39.22,15.11-39.22,15.11c-1.59.65-3.05.44-4.47-.51l-18.95-17v59.07s37.27-15.29,37.27-15.29l23.16-9.48c1.28-.96,2.21-2.31,2.21-4.1ZM80.82,190.24c0,1.62,1.07,2.86,2.16,3.71l18.18,7.51,41.45,17.33v-58.47s-17.35,16.06-17.35,16.06c-1.39,1.33-3.25,1.54-5.02.77l-28.37-11.03-11.08-4.19.03,28.31Z"/>
    <path class="cls-1" d="M144.11,119.78c-2.9,2.89-4.95,6.12-6.01,9.91-.23.82-1.02,1.24-1.68,1.11-.91-.18-1.44-1-1.16-1.92,1.33-4.37,3.59-8.16,6.96-11.39l-3.15-1.39c-.37-.17-.73-.91-.72-1.27.02-.48.35-1.09.77-1.41l3.94-3.02c.68-.52,1.75.16,1.92.78l.86,3.22c2.87-2.12,5.64-3.93,8.8-5.75l-3.08-2.06c-.46-.31-.77-.95-.71-1.5.06-.63.55-1.03,1.16-1.35l4.07-2.1c.31-.16,1.12-.09,1.4.08.31.19.65.81.66,1.23l.15,3.55,4.26-2.38-3.6-34.99c-.1-.95.46-1.52,1.23-1.86l27.04-11.93c1.1-.49,2.43.21,2.71,1.36l7.09,28.75c.18.74.4,1.92-.41,2.4l-31.37,18.75c-.27.16-1.14.12-1.48.15l-3.52,2.03,1.7,1.21c.39.28.83.71.94,1.13.09.36-.09,1.25-.45,1.44l-4.78,2.61c-.34.18-1.16.04-1.45-.17s-.5-.86-.52-1.27l-.08-2.27c-2.82,1.63-5.26,3.23-7.93,5.25l2.79,1.18c.43.18.91.73.99,1.12.13.63-.2,1.22-.67,1.6l-3.32,2.7c-.4.32-.97.6-1.48.55-.38-.03-1.01-.54-1.11-.97l-.76-3.15ZM177.37,75.85l8.03-16.43-21.74,9.57,13.71,6.86ZM193.66,84.01l-5.71-23.22-8.07,16.36,13.77,6.86ZM176.11,78.44l-14-6.94,3,28.92,11-21.98ZM192.64,86.77l-14.01-7.04-10.85,21.92,24.86-14.88ZM143.43,115.16l-.39-1.45-1.06.87,1.45.58Z"/>
    <path class="cls-1" d="M81.24,112.71c.85.54,1.21,1.33.76,2.2-.38.72-1.4,1.09-2.22.57l-8.85-5.66c-.77-.49-.99-1.29-.65-2.08.25-.59,1.29-1.18,2.04-.7l8.93,5.67Z"/>
    <path class="cls-1" d="M206.04,115.25c-.79.52-1.68.45-2.21-.16-.41-.47-.59-1.67.17-2.17l9.08-6c.69-.46,1.7,0,2.03.57s.29,1.57-.4,2.03l-8.67,5.73Z"/>
    <path class="cls-1" d="M145.71,68.83c0,1-.57,1.58-1.38,1.68-.58.07-1.62-.39-1.62-1.22l-.03-10.72c0-.89.57-1.53,1.3-1.63s1.71.31,1.71,1.23l.02,10.65Z"/>
    <path class="cls-1" d="M124.49,72.64c.61.86.49,1.73-.24,2.28-.69.51-1.62.44-2.17-.35l-5.49-7.83c-.48-.68-.2-1.61.39-2.05.63-.47,1.59-.43,2.12.32l5.38,7.64Z"/>
    <polygon class="cls-1" points="143.43 115.16 141.98 114.58 143.04 113.71 143.43 115.16"/>
  </g>
</svg>