<?xml version="1.0" encoding="UTF-8"?>
<svg id="Capa_1" data-name="Capa 1" xmlns="http://www.w3.org/2000/svg" xmlns:xlink="http://www.w3.org/1999/xlink" viewBox="0 0 283.46 283.46">
  <defs>
    <style>
      .cls-1 {
        fill: #fff;
      }

      .cls-2 {
        fill: url(#Degradado_sin_nombre_92);
      }
    </style>
    <linearGradient id="Degradado_sin_nombre_92" data-name="Degradado sin nombre 92" x1="39.89" y1="145.44" x2="243.24" y2="145.44" gradientUnits="userSpaceOnUse">
      <stop offset="0" stop-color="#d84565"/>
      <stop offset=".2" stop-color="#b25a81"/>
      <stop offset=".43" stop-color="#8f6d9d"/>
      <stop offset=".64" stop-color="#757cb0"/>
      <stop offset=".84" stop-color="#6684bc"/>
      <stop offset=".99" stop-color="#6188c1"/>
    </linearGradient>
  </defs>
  <rect class="cls-2" x="39.89" y="44.01" width="203.36" height="202.85" rx="12" ry="12"/>
  <g>
    <path class="cls-1" d="M215.89,98.01c2.63,7.68.02,16-6.21,21.37-3.81,3.28-8.5,4.92-13.66,5.04-1.97.05-3.55,2.97-3.31,3.63.45,1.26.45,2.48-.08,3.66l-3.52,7.86,16.76-6.49c1.64-.63,3.31-.47,4.73.57l19.1,14.05c1.47,1.5,1.44,4.52-.73,5.45l-17.25,7.38-.06,28.55c0,2.68-1.7,5.35-4.21,6.43l-14.24,6.08-42.65,17.93c-2.79,1.17-5.68,1.33-8.49.13l-56.77-24.45c-2.41-1.04-3.82-4.13-3.82-6.46l-.03-28.68-16.99-6.97c-2.2-.9-2.28-3.69-.85-5.32l19.03-14.07c1.44-1.11,3.18-1.58,4.95-.91l17.71,6.74-11.26-26.22-1.61,1.64c-.86.87-2.26,1.19-3.54.89-.87-.21-2.25-.9-2.5-2.05l-1.65-7.57-7.09-2.43c-1.35-.46-2.35-1.4-2.54-2.61-.21-1.31.23-2.85,1.53-3.53l7.06-3.66.16-6.94c.03-1.5.47-2.86,1.89-3.51,1.24-.57,3.04-.59,4.19.41l6.03,5.29,8.47-2c1.17-.28,2.52.63,3.04,1.31.74.96,1,2.25.44,3.32l-3.47,6.69,4.2,5.82c.69.95.7,2.22.2,3.28-.39.84-1.34,2.02-2.61,1.98l-3.66-.11,8,18.39,7.24,16.63,7.93,3.18-2.95-13.62c-2.95-.83-4.56-3.57-3.81-6.26.76-2.73,3.81-4.29,6.82-3.52,3.25.88,4.74,4.12,3.29,7.06l6.5,5.06,5.63-8.91c-2.58-2.14-2.82-5.71-.55-7.99s6.25-2.39,8.61-.09c2.32,2.25,2.23,5.94-.54,8.08l5.52,8.77,6.42-5.05c-.77-1.77-.56-3.69.62-5.14,1.1-1.36,2.98-2.12,4.95-1.94,2.71.24,4.68,2.21,4.85,4.65.18,2.48-1.47,4.66-4.19,5.32l-3.38,15.2,11.37-4.28c-1.91-1.96-2.41-4.27-1.47-6.54l6.48-11.73c.75-1.36,1.76-2.31,3.46-2.59l.81-2.5c.34-1.05-.37-1.9-1.09-2.63-3.18-3.22-4.83-7.37-4.98-11.8-.39-11.36,9.31-21.43,21.6-20.96,7.57.29,13.84,4.82,16.18,11.68ZM97.05,106.25l8.18.72c.25-.03.77-.15.79-.35l.07-.78-4.45-6.15c-.4-.58-.42-1.33-.07-1.94l3.6-6.94-.21-.55c-.05-.14-.56-.17-.73-.17l-7.73,1.95c-.66.21-1.39.15-1.98-.18l-6.26-5.59c-.24-.1-.66-.24-.87-.23s-.46.4-.54.62l-.19,7.76c0,.64-.27,1.18-.77,1.63l-7.37,3.76c-.18.1-.55.52-.47.7s.33.46.53.67l7.77,2.63c.43.13,1.01.62,1.1,1.06l1.61,7.42c.07.3.35.76.62.83s.81-.15.99-.37l4.78-5.84c.3-.36,1.01-.62,1.61-.66ZM190.44,125.74c1.03-2.25,3.02-3.96,5.58-4.05,4.29-.16,8.14-1.43,11.35-4.08,6.04-4.98,8.29-13.09,5.19-20.07-3.63-8.17-13.87-10.7-22.05-6.33-6.76,3.61-10.41,10.84-9.3,18.02.54,3.53,2.31,6.33,4.78,8.91,1.58,1.65,1.24,4.13.44,6.04l4.01,1.57ZM113.81,142.82l-14.57-33.48c-.59-.15-1.46-.24-1.91-.12l-1.21,1.52,13.1,30.4,4.58,1.68ZM144.72,120.45c-1.87.18-2.95,1.64-2.7,3.26.23,1.47,1.63,2.59,3.35,2.38,1.62-.2,2.84-1.44,2.68-3.1-.13-1.43-1.51-2.71-3.34-2.54ZM123.62,126.83c-1.59.33-2.27,1.76-1.92,2.99.38,1.33,1.76,2.1,3.21,1.75,1.3-.31,2.17-1.56,1.89-2.87s-1.63-2.2-3.19-1.88ZM165.02,126.85c-1.58.4-2.24,1.79-1.92,2.95.39,1.42,1.8,2.12,3.21,1.77,1.36-.34,2.25-1.6,1.91-2.93-.31-1.25-1.69-2.18-3.21-1.8ZM185.19,141.06l4.64-10.22c.55-1.22.02-2.42-1.26-2.95l-2.99-1.1c-1-.37-2.44.04-2.96.99l-6.71,12.14c-.35,1.71.69,3.16,2.32,3.85l6.95-2.7ZM160.27,150.58l3.69-16.55-1.44-.67-7.64,6c-.34.27-1.21.34-1.57.21-.38-.15-.73-.56-.98-.96l-6.21-9.89-2.32.04-6.61,10.47c-.47.74-1.71.65-2.28.21l-7.75-5.97-1.42.66,3.27,14.96,17.16,6.85,14.1-5.35ZM124.41,174.85l7.07-6.48,11.67-10.54-33.02-13.18-23.28-9c-.54-.21-1.25-.34-1.71,0l-18.97,13.96c-.31.23-.45.87-.06,1.02,13.56,5.44,26.91,10.97,40.25,16.88l16.86,7.48c.33.15.85.06,1.19-.14ZM198.16,163.13l29.01-12.38c.16-.07.42-.35.45-.48s-.15-.52-.26-.6l-19.46-14.24-58.73,22.43,19.72,16.93c.53.48,1.14.57,1.8.26l27.47-11.91ZM208.65,161.89l-15.12,6.49-21.93,9.49c-1.39.36-3.19.43-4.36-.57l-19.68-16.84v57.06s30.96-13.03,30.96-13.03l27.82-11.67c1.69-1.14,2.32-2.78,2.32-4.7v-26.24ZM84.49,161.38v27.14c.08,1.77.88,3.24,2.41,4.25l34.22,14.57,23.38,10.07v-56.62s-7.12,6.33-7.12,6.33l-10.99,10.02c-1.46.98-3.2,1.1-4.83.34l-22.34-9.83-14.72-6.28Z"/>
    <path class="cls-1" d="M157.71,111.99c-4.61,2.07-15.33,2.07-20.99,1.7-2.22-.14-4.41-.54-6.34-1.35-1.81-.76-2.42-2.11-2.44-3.81l-.12-9.01c-3.99-.93-6.8-3.76-7.54-7.43-.59-2.96.15-5.95,2.24-8.2,2.46-2.65,6.24-3.64,9.88-2.43.61-1.89,1.67-3.5,3.28-4.85,4.6-3.87,11.61-4.02,16.42-.37,1.83,1.39,2.99,3.14,3.76,5.2,3.64-1.2,7.46-.17,9.93,2.58s2.97,6.25,1.6,9.7c-1.12,2.83-3.96,5.13-7.45,5.84l-.18,9.71c-.02,1.2-.96,2.23-2.06,2.72ZM138.45,101.79c6.38-.79,12.55-.4,18.5,1.28l.23-6.09c3.48.26,6.47-1.63,7.59-4.5s.11-6.23-2.69-7.88c-1.92-1.13-4.36-1.33-6.08-.01-.44.34-.93.63-1.41.65-.38.02-1.18-.46-1.21-.84-.15-1.9-.68-3.51-2.02-4.94-3.55-3.81-9.79-4.11-13.79-.66-1.48,1.28-2.42,3.04-2.59,4.95-.06.71-.31,1.25-1.01,1.47-.63.19-1.2-.2-1.73-.62-1.69-1.32-4.08-1.11-5.95-.1-2.14,1.15-3.29,3.31-3.3,5.64-.02,4.04,3.36,7.07,7.68,6.95l.19,6.18c2.63-.71,4.92-1.14,7.59-1.48ZM153.46,110.36c1.16-.15,2.3-.52,3.29-1.05l.13-3.39c-8.28-2.55-17.66-2.21-25.97.19l-.05,2.66c0,.48.58,1.1,1.14,1.25,5.8,1.58,15.26,1.16,21.46.33Z"/>
    <path class="cls-1" d="M146.41,65.64c0,.96-.89,1.4-1.61,1.45s-1.76-.45-1.76-1.36l-.02-10.64c0-.93.77-1.52,1.62-1.57.75-.04,1.76.46,1.76,1.38v10.74Z"/>
    <path class="cls-1" d="M173.25,72.58c-.53.81-1.41,1.02-2.21.74-.71-.25-1.44-1.22-.93-2.01l5.62-8.66c.51-.78,1.33-1.09,2.22-.79.66.23,1.44,1.24.94,2.01l-5.65,8.71Z"/>
    <path class="cls-1" d="M119.82,71.33c.49.81-.17,1.72-.8,1.98s-1.71.21-2.13-.48l-5.33-8.75c-.52-.85.1-1.89.83-2.15,1.1-.39,1.77.08,2.3.95l5.13,8.44Z"/>
    <path class="cls-1" d="M217.96,123.54c-.97.44-1.95.24-2.34-.54-.41-.83-.09-1.74.81-2.14l9.5-4.26c.81-.36,1.66.15,1.95.75.32.67.16,1.61-.69,1.99l-9.23,4.2Z"/>
    <path class="cls-1" d="M77.85,120.49c.96.44,1.24,1.2.98,2-.22.66-1.23,1.28-2.08.88l-9.38-4.35c-.81-.38-1.09-1.22-.84-1.9.23-.63,1.21-1.31,2.02-.94l9.3,4.3Z"/>
    <path class="cls-1" d="M146.58,148.27c-.61.73-1.92,1.35-2.75.41l-3.56-4.02c-.49-.55-.61-1.43-.09-2.04l3.59-4.19c.7-.82,1.98-.6,2.6.13l3.31,3.92c.37.44.62,1.35.22,1.84l-3.3,3.95ZM145.03,145.98l2.01-2.43-2.06-2.46-2.07,2.49,2.11,2.4Z"/>
    <path class="cls-1" d="M196.54,118.97c-5.13.17-9.43-2.56-11.43-6.82-3.76-8.01,1.3-17.93,10.35-19.98,6.78-1.53,13.33,2.21,14.93,8.57,2.19,8.68-4.32,17.9-13.85,18.22ZM200.4,115.38c5.79-2.46,8.79-8.76,7.05-14.37-1.49-4.8-6.46-7.36-11.53-6.1-6.89,1.72-10.84,9.19-8.45,15.4,1.92,5,7.6,7.33,12.93,5.06Z"/>
    <path class="cls-1" d="M183.37,140.8c-1.1,1.2-2.94,1.06-4.05.12-1.18-1.01-1.24-2.66-.19-3.84s2.88-1.33,4.08-.36c1.24,1.01,1.36,2.77.16,4.07ZM180.89,139.42c.27.2.93-.1,1.04-.41.08-.24-.29-.83-.55-.78-.29.06-.61.29-.69.47-.06.15.07.62.21.72Z"/>
  </g>
</svg>