<?xml version="1.0" encoding="UTF-8"?>
<svg id="Capa_1" data-name="Capa 1" xmlns="http://www.w3.org/2000/svg" xmlns:xlink="http://www.w3.org/1999/xlink" viewBox="0 0 283.46 283.46">
  <defs>
    <style>
      .cls-1 {
        fill: url(#Degradado_sin_nombre_83);
      }

      .cls-2 {
        fill: #fff;
      }
    </style>
    <linearGradient id="Degradado_sin_nombre_83" data-name="Degradado sin nombre 83" x1="39.89" y1="145.44" x2="243.24" y2="145.44" gradientUnits="userSpaceOnUse">
      <stop offset="0" stop-color="#d84565"/>
      <stop offset=".2" stop-color="#b25a81"/>
      <stop offset=".43" stop-color="#8f6d9d"/>
      <stop offset=".64" stop-color="#757cb0"/>
      <stop offset=".84" stop-color="#6684bc"/>
      <stop offset=".99" stop-color="#6188c1"/>
    </linearGradient>
  </defs>
  <rect class="cls-1" x="39.89" y="44.01" width="203.36" height="202.85" rx="12" ry="12"/>
  <g>
    <path class="cls-2" d="M76.79,121.28c.84.33,1.26,1.23,1.03,2.04-.21.73-1.04,1.6-1.95,1.24l-11.04-4.31c-.84-.33-.93-1.44-.64-2.09.33-.71,1.19-1.31,2.04-.98l10.55,4.1Z"/>
    <path class="cls-2" d="M212.9,114.05c-.54.32-1.04.43-1.62.26-.39-.11-.78-.46-1.02-.97-.33-.69-.17-1.58.56-2.02l8.87-5.29c.79-.47,1.72-.22,2.19.53.55.87.32,1.95-.58,2.49l-8.41,5.01Z"/>
    <path class="cls-2" d="M85.76,95.45c.93.55,1.22,1.55.77,2.41-.48.92-1.59,1.15-2.51.59l-7.57-4.63c-.72-.44-.63-1.58-.23-2.14.43-.6,1.36-1.11,2.09-.67l7.44,4.45Z"/>
    <g>
      <path class="cls-2" d="M171.11,79.42c-.47.91-1.34,1.21-2.2.85-.74-.31-1.37-1.3-.92-2.17l4.36-8.61c.32-.63.62-1.24,1.08-1.75.53-.59,1.49-.58,2.08-.14.61.46.96,1.33.57,2.1l-2.52,4.98-2.45,4.75Z"/>
      <path class="cls-2" d="M113.1,78.92c.53.89.09,1.99-.66,2.41s-1.84.19-2.33-.65l-5.26-9.02c-.46-.78-.15-1.74.51-2.21s1.8-.47,2.29.35l5.45,9.13Z"/>
      <path class="cls-2" d="M153.5,70.93c.76-.8.87-1.92.48-3-.3-.85-1.11-1.61-2.18-1.82l-4.78-.94-2.59-4.71c-.51-.92-1.68-1.19-2.7-1.05-.89.13-1.69.7-2.16,1.59l-2.28,4.27-4.88.89c-1.02.19-1.81,1.07-2.07,1.89-.33,1.05-.21,2.12.54,2.92l2.96,3.13c.28.3.43.59.36,1.02l-.63,4.16c-.15.98.18,1.89.85,2.53.64.61,1.55.94,2.48.8.91-.13,1.69-.6,2.49-1.01l2.33-1.21c.25-.13.53-.18.84-.03l3.8,1.89c1.17.58,2.63.46,3.61-.42.66-.6.97-1.49.85-2.37l-.6-4.36c-.04-.28-.08-.67.13-.89l3.15-3.31ZM147.5,73.01c-.4.42-.48.78-.4,1.34l.72,4.89c.02.13-.03.26-.08.31-.06.06-.2.07-.33,0l-4.49-2.24c-.49-.24-.86-.26-1.29-.05l-2.44,1.19-2.39,1.2c-.19-.02-.2-.43-.18-.59l.66-4.98c.05-.36-.03-.66-.26-.91l-3.85-4.1,5.79-1.19c.39-.13.6-.49.79-.85l2.45-4.61,2.22,4.28c.36.69.74,1.17,1.54,1.31l5.04.93c.24.04.02.47-.08.57l-3.41,3.5Z"/>
    </g>
    <g>
      <g>
        <circle class="cls-2" cx="138.05" cy="104.51" r="2.63"/>
        <circle class="cls-2" cx="131.61" cy="100.84" r="2.62"/>
        <circle class="cls-2" cx="128.1" cy="107.21" r="2.62"/>
        <circle class="cls-2" cx="134.48" cy="110.96" r="2.62"/>
        <path class="cls-2" d="M116.49,116.71c-.7.19-1.34-.14-1.51-.69-.22-.73.11-1.41.86-1.61l3.82-1.01c.67-.18,1.24.33,1.35.94.11.57-.22,1.23-.91,1.41l-3.62.96Z"/>
        <path class="cls-2" d="M107.89,113.81l-.59-1.89c-.32-1.02-1.22-1.82-2.32-1.86-.69-.02-1.31.27-1.99.42l-.66-1.6c-.45-1.08-1.6-1.82-2.78-1.45l-2.68.84c-1.1.46-1.59,1.78-1.29,2.88l.36,1.3-1.73.66c-.9.48-1.44,1.45-1.28,2.49.15,1.01.43,1.98.83,2.9.71,1.64,2.46,1.54,4.15.87l.55,1.59c.41,1.16,1.61,1.83,2.89,1.45l2.53-.77c1.11-.34,1.66-1.48,1.44-2.59l-.32-1.64,1.3-.41c1.37-.43,1.97-1.84,1.55-3.2ZM103.01,115.32c-.64.19-1.08.68-.91,1.36l.64,2.51c-.6.3-1.27.44-1.97.62l-.73-2.47c-.17-.58-.66-.93-1.28-.77l-2.61.68-.53-1.96,2.66-.82c.47-.15.68-.66.56-1.12l-.71-2.71,1.96-.56.77,2.53c.18.6.73.9,1.33.74l2.55-.69.6,1.98-2.34.68Z"/>
        <g>
          <path class="cls-2" d="M168.03,133.58l-1.12-.35c-.66-.21-1.07-.81-.86-1.49l.77-2.52-2.61-.82c-1.01-.32-.81-1.74-.22-2.85.24-.44.86-.61,1.33-.48l2.56.73.71-2.23c.19-.61.63-1.12,1.33-1.07,1.23.08,2.5.72,2.17,1.76l-.78,2.51,2.54.78c.61.19,1.03.79.82,1.4l-.47,1.4c-.18.52-.78.83-1.33.67l-2.63-.78-.77,2.56c-.18.6-.83.95-1.45.76Z"/>
          <path class="cls-2" d="M199.1,100.03l-2.56-.92-19.7-6.22c-1.72-.54-3.38-.02-3.94,1.78l-1.21,3.85-4.58,14.66c-.42,1.36.65,2.81,1.93,3.22l13.37,4.24,8.67,2.69c1.44.45,2.84-.32,3.51-1.62.5-.97.67-1.86.98-2.87l4.85-15.86c.36-1.17-.33-2.61-1.33-2.97ZM191.89,120.43l-21.74-6.81,5.59-17.84,21.74,6.81-5.59,17.84Z"/>
          <path class="cls-2" d="M187.06,129.51c-1.99,0-3.6,1.61-3.6,3.6s1.61,3.6,3.6,3.6,3.6-1.61,3.6-3.6-1.61-3.6-3.6-3.6ZM187,134.43c-.74,0-1.34-.6-1.34-1.34s.6-1.34,1.34-1.34,1.34.6,1.34,1.34-.6,1.34-1.34,1.34Z"/>
          <path class="cls-2" d="M179,133.67c-1.97,0-3.58,1.6-3.58,3.58s1.6,3.58,3.58,3.58,3.58-1.6,3.58-3.58-1.6-3.58-3.58-3.58ZM178.98,138.63c-.75,0-1.36-.61-1.36-1.36s.61-1.36,1.36-1.36,1.36.61,1.36,1.36-.61,1.36-1.36,1.36Z"/>
        </g>
      </g>
      <path class="cls-2" d="M226.58,148.13c-.63-.89-1.53-1.44-2.42-2.07l-16.65-11.72c-.95-.67-2.12-1.01-3.2-.59l-7.57,2.98c-.11.04-.18.04-.19,0-.02-.07.01-.17.04-.28l5.39-16.9,4.55-14.58c1.52-4.88-.95-10.46-5.91-12.14l-4.22-1.43-16.5-5.22c-2.85-.9-5.79-.84-8.4.67-1.38.8-2.54,1.92-3.42,3.24-.75,1.13-1.16,2.34-1.56,3.63l-3.64,11.84-4.28,14.2c1,1.68,1.36,3.45,1.54,5.38l4.21-13.88,2.37-7.74,3.22-10.4c.63-2.02,2.36-3.57,4.33-4.2,1.7-.55,3.27-.22,4.93.31l19.97,6.32c2.36.75,4.16,2.58,4.61,5.03.16.89.24,1.92-.01,2.79l-1.57,5.36-4.61,14.5-3.27,10.35-1.56,4.67-2.98,1.27-16.45,6.41-3.83,1.6c-.52.22-.88.12-1.33-.17-.34-.22-.58-.32-.55-.78.12-1.92-.99-3.56-2.75-4.27l-7.69-3.08c-.71-.29-1.01-.99-.83-1.66l1.36-5.03c-1.17,1.25-2.31,2.34-3.85,3.01l-.56,2.18c-.03.13-.39-.02-.45-.13-.07-.12-.1-.25-.09-.44l.06-2.34c2.66-1.19,4.75-3.4,5.58-6.24.8-2.74.64-5.68-.72-8.21-1.86-3.45-5.58-5.55-9.47-5.44-5.33.15-9.58,4.13-10.16,9.38l-2.29-1.86c.1-2.42-1.05-4.71-3.24-5.81-1.82-.91-4-.73-5.73.4-1.56,1.02-2.6,2.81-2.68,4.89l-8.27,2.36c-1.17-1.91-3.15-2.92-5.27-2.84-2.04.08-3.89,1.29-4.91,3.12-1,1.82-.86,3.82.08,5.62l-2,7.27c-.37,1.35-.94,2.57-1.79,3.66l-10.38-3.71c-.79-.28-1.25-2.88-1.33-4.26l-1.05-17.71c-.32-5.39,1.83-10.68,6.92-12.84,1.65-.7,5.06-1.81,6.35-1.26,1.05.45,1.99.42,3.09.11l16.4-4.71c2.28-.66,1.91-2.31,4.16-2.88l3.12-.78c3.37-.84,6.82.11,9.42,2.38,1.42,1.24,2.61,2.58,3.5,4.26l3.5,6.59,3.7,7.46c1.3.1,2.4.5,3.69.99l-2.95-6.43-3.28-6.46-2.63-4.66c-1.48-2.16-3.24-4.04-5.47-5.43-3.22-2.02-7.02-2.47-10.65-1.51-1.9.51-4.74,1-5.81,2.55-.36.52-.82.93-1.48,1.12l-16.21,4.65c-.26.08-.61.18-.83.07-1.07-.52-2.22-.7-3.38-.4l-3.84.99c-4.29,1.11-7.77,4.51-9.29,8.66-.91,2.46-1.2,4.99-1.06,7.64l.87,16.49.46,3.66c.01.09.07.26.01.3-.05.04-.19-.03-.25-.06l-3.86-1.44-2.24-.82c-1.26-.46-2.66-.35-3.77.43l-5.46,3.83-13.15,9.23c-.94.66-1.39,1.68-1.25,2.79.11.89.79,1.81,1.78,2.18l8.33,3.05,8.66,3.2v31.31c0,2.12.87,3.86,2.82,4.64l16.32,6.55,9.9,3.98,14.82,5.96,21.61,8.76c.42.17.83.36,1.23.2l4.34-1.7,57.66-23.53c.78-.32,1.47-.74,1.98-1.36.72-.87,1.15-2,1.15-3.2l.02-31.41,7.89-2.94,9.06-3.38c1.67-.62,2.52-2.69,1.47-4.17ZM164.34,145.08l-13.76,5.8c-2.2.93-3.52,1.08-5.69.03l-4.83-2.34-8.6-4.36,5.59-1.9,6.55-2.1c.02.46.04.91-.13,1.36-.83.36-1.55.96-1.78,1.87-.27,1.09.36,2.11,1.39,2.61,3.17,1.53,6.94,1.54,10.1-.02.74-.36,1.22-1.06,1.32-1.71.13-.84-.2-1.57-.82-2.1l-.92-.59c-.06-.46-.09-.86-.01-1.29l11.58,4.74ZM146.42,144.13l.06-8.62c1.13.24,2.21.26,3.39.11l-.05,8.61-3.41-.1ZM148.47,117.97c4.08,0,7.39,3.31,7.39,7.39s-3.31,7.39-7.39,7.39-7.39-3.31-7.39-7.39,3.31-7.39,7.39-7.39ZM129.94,119.1c1.59,0,2.89,1.29,2.89,2.89s-1.29,2.89-2.89,2.89-2.89-1.29-2.89-2.89,1.29-2.89,2.89-2.89ZM110.86,124.41c1.58,0,2.87,1.28,2.87,2.87s-1.28,2.87-2.87,2.87-2.87-1.28-2.87-2.87,1.28-2.87,2.87-2.87ZM107.15,136.86l1.13-4.32c2.14,1.03,4.67.76,6.41-.82,1.31-1.19,2.07-2.76,2.04-4.58l8.04-2.28c1.01,1.77,2.79,2.87,4.72,2.99,2.09.13,3.98-.72,5.25-2.49l3.73,3.44c1.11,2.4,2.62,4.5,5.12,5.7l-.03,2.87-12.08,3.96c-.76.25-1.37.5-2.02.95-.48.64-1.2,1.34-1.29,2.25l-.62,6.4-7.15-2.79-15.44-5.89c.99-1.75,1.69-3.5,2.19-5.38ZM73.08,153.9l-12.17-4.46,17.96-12.66c.43-.3.83-.38,1.3-.19l10.02,3.6,11.06,3.98,28.13,10.82,10.8,4.32-1.91,1.61-2.66,2.13-13.54,10.54c-.38.3-.66.35-1.1.16l-10.21-4.48-21.94-9.27-15.74-6.09ZM141.2,216.07l-13.17-5.34-36.32-14.62-10.91-4.35c-.5-.2-.91-.41-1.21-.81l-.16-1.59v-29.72c6.64,2.47,12.97,5.12,19.38,7.85l14.89,6.48,6.33,2.7c1.3.55,2.65.23,3.83-.49l11.7-9.17,5.65-4.45v53.5ZM139.54,155.66l-9.12-3.63.44-5.07,12.74,6.38c2.51,1.17,4.83,1.31,7.42.22l13.85-5.83.11,1.39-6.57,2.57-9.47,3.67-5.34,2.02-4.07-1.72ZM205.08,188.78l-.12,1.82c-.03.43-.3.73-.65.89l-2.03.94-26.91,10.98-18.28,7.43-12.74,5.19v-53.9s2.44,1.89,2.44,1.89l5.26,4.37,6.69,5.51,2.45,2.01c1.2.98,2.77,1.31,4.19.7l8.89-3.8,14.23-6.18,5.48-2.3,8.6-3.47,2.51-1v28.9ZM209.45,154.84l-28.62,11.75-10.93,4.79-3.41,1.43c-2.1.88-2.32,1.49-3.78.29l-16.41-13.46,3.36-1.23,17.16-6.65,11.4-4.45,8.97-3.49,17.49-6.88c.41-.26.86-.3,1.29,0l17.75,12.56-14.27,5.33Z"/>
    </g>
  </g>
</svg>