<?xml version="1.0" encoding="UTF-8"?>
<svg id="Capa_1" data-name="Capa 1" xmlns="http://www.w3.org/2000/svg" xmlns:xlink="http://www.w3.org/1999/xlink" viewBox="0 0 283.46 283.46">
  <defs>
    <style>
      .cls-1 {
        fill: #fff;
      }

      .cls-2 {
        fill: url(#Degradado_sin_nombre_104);
      }
    </style>
    <linearGradient id="Degradado_sin_nombre_104" data-name="Degradado sin nombre 104" x1="39.89" y1="145.44" x2="243.24" y2="145.44" gradientUnits="userSpaceOnUse">
      <stop offset="0" stop-color="#d84565"/>
      <stop offset=".2" stop-color="#b25a81"/>
      <stop offset=".43" stop-color="#8f6d9d"/>
      <stop offset=".64" stop-color="#757cb0"/>
      <stop offset=".84" stop-color="#6684bc"/>
      <stop offset=".99" stop-color="#6188c1"/>
    </linearGradient>
  </defs>
  <rect class="cls-2" x="39.89" y="44.01" width="203.36" height="202.85" rx="12" ry="12"/>
  <g>
    <path class="cls-1" d="M138.11,214.79l-18.37-8.02-27.01-11.66-6.7-2.86c-2.82-1.2-4.98-4.11-4.99-7.26l-.04-27.88-18.67-7.12c-1.09-.42-1.78-1.59-1.91-2.46-.17-1.16.22-2.5,1.25-3.24l22.26-15.79c.64-.45,1.63-.31,2.33-.03l24.3,9.66c1.37-.05,2.56-.81,3.24-2,.53-1.2.5-2.5-.31-3.52-.71-.9-1.91-1.46-3.27-1.3-2.37.28-3.51,2.09-5.11,1.79-.51-.1-1.19-.62-1.39-1.27l-3.94-12.36c-3.27,2.83-8.01,2.45-10.81-.77-1.44-1.66-2.12-3.76-1.88-5.95.46-4.25,4.25-7.17,8.52-6.59l-3.12-9.8c-.67-2.11.31-4.47,2.59-5.09l10.24-2.77c.82-.22,1.82.17,2.38.68,1.48,1.36-.22,3.88,1.25,6.12.89,1.37,2.54,1.98,4.01,1.45,1.45-.52,2.36-2.01,2.09-3.67-.39-2.44-2.78-3.39-2.09-5.53.19-.6.85-1.39,1.66-1.61l9.54-2.63c2.72-.75,4.72.83,5.49,3.34l2.72,8.81c3.83-3.23,9.31-1.97,11.62,2,1.36,2.35,1.38,4.99.25,7.3-1.47,3-4.6,4.63-8.01,4.07l1.92,6.24,2.14-1.18c3.51-1.94,7.88-2.45,11.61-.69l9.22,4.83c5.9-3.09,9.18-8.03,11.82-13.87-3.88-4.79-3.08-11.65,1.77-15.49,3.05-2.41,7.16-3.05,10.84-1.78,4.06,1.4,6.84,4.88,7.41,8.84.62,4.29-1.29,8.49-4.99,10.88-.56,6.64.65,13.31,3.82,19.25,1.98,1.48,3.49,3.22,4.36,5.62l6.56-2.71c1.04-.43,1.82-.02,2.66.56l20.53,14.41c1.16.81,1.85,1.88,1.78,3.28-.05,1.2-.8,2.56-2.14,3.08l-18.84,7.3-.04,27.33c0,3.19-2.04,6.25-4.96,7.52l-11.49,4.99-41.78,18.03c-3.38,1.46-6.93.99-10.28-.47ZM106.17,129.56c1.87-1.1,3.61-1.54,5.51-1.29,2.61.35,4.67,2.22,5.3,4.53.72,2.65-.14,5.22-2.5,6.91l7.64,3.12.07-13.7c.02-3.09,1.66-6.24,4.37-7.75l8.83-4.89-2.79-9.11c-.23-.73.39-1.49.91-1.73.59-.28,1.31-.25,1.93-.03,2.42.84,4.96-.08,6.03-2.22s.32-4.76-1.76-6.05-4.63-.76-6.24,1.15c-.41.49-.98.91-1.53,1-.5.08-1.54-.21-1.73-.79l-3.7-11.73c-.18-.57-.77-1-1.41-.82l-8.91,2.46c.84,1.2,1.45,2.17,1.76,3.41.74,2.95-.67,5.98-3.35,7.26-2.66,1.28-5.85.59-7.78-1.72-1.37-1.65-1.8-3.69-1.56-5.94l-9.02,2.45c-.86.23-1.05.92-.8,1.71l3.81,11.83c.21.66-.35,1.43-.76,1.67-.58.34-1.32.38-1.94.14-1.67-.66-3.41-.45-4.78.61-1.28,1-1.9,2.68-1.6,4.37.34,1.95,1.76,3.35,3.5,3.79,1.95.49,3.83-.35,5.06-1.89.5-.62,1.25-1.03,2.02-.86.71.15,1.13.72,1.36,1.47l4.05,12.66ZM189.94,97.33c0-4.22-3.26-7.48-7.18-7.99s-7.92,1.96-8.95,5.93c-1.25,4.8,2.11,9.42,6.99,10.01,4.64.56,9.15-2.96,9.14-7.95ZM186.82,130.81c1.18-.72,2.07-1.74,2.43-3.1-3.37-6.1-4.8-12.84-4.43-19.75-3.36.87-6.74.36-9.6-1.63-1.37,3.06-2.97,5.8-5.12,8.27-1.7,2.03-3.63,3.64-5.97,5.12l3.79,2.2c2.61,2.02,3.8,5.24,3.69,8.48l.08,1.22c4.74,1.46,10.97,1.76,15.14-.81ZM148.68,136.07l17.12-9.18c.55-.3.95-.95.98-1.47.03-.48-.39-1.21-.93-1.49l-15.06-8.07c-2.26-1.21-5.48-1.31-7.77-.09l-15.31,8.16c-.59.32-.93,1.12-.86,1.67s.46,1.03,1.04,1.34l16.93,9.12c1.22.66,2.54.71,3.85.01ZM145.17,141.6c0-1.78-1.35-2.84-2.7-3.57l-16.01-8.61c-.22-.12-.77-.1-.95.02s-.43.56-.43.82l.04,13.81,20.09,8.21-.03-10.68ZM156.48,147.86l4.35-1.82c.12-1.61.96-2.94,2.44-3.36,1.07-.3,2.13.16,2.37,1.36l2.98-1.24v-12.39c0-.38-.26-.9-.52-1.04-.24-.13-.82-.05-1.1.1l-15.67,8.38c-1.53.82-3.04,2-3.05,3.86l-.02,9.48,4.01-1.64c.37-1.37,1.72-2.27,2.96-2.18.31.02.91.33,1.27.47ZM171.6,134.78v6.83s21.69-8.97,21.69-8.97c-.41-1.09-.96-1.99-1.62-2.78-1.52,3.46-5.62,5.12-9.25,5.67-3.65.51-7.21.21-10.82-.75ZM123,170.28l17.83-16.49-38.5-15.7-17.18-6.73-21.28,15.1c-.12.08-.31.42-.26.54s.29.31.46.37l20.07,7.67,37,15.16c.53.22,1.36.56,1.87.08ZM198.03,157.59l26.28-10.3c.22-.13.29-.67.06-.82l-20.95-14.72-29.76,12.31-25.64,10.52,16.94,15.56c.38.35.95.38,1.52.32l31.54-12.87ZM84.13,185.01c.35,2.48,1.97,4.24,4.32,4.91l52.05,22.53,2,.43v-56.39s-16.6,15.31-16.6,15.31c-1.59,1.74-3.82,2.27-5.99,1.22l-35.77-14.64v26.63ZM203.53,184.52v-25.86s-35.71,14.57-35.71,14.57c-2.02.7-4.01.25-5.43-1.28l-16.84-15.39v56.31c1.06-.2,1.85-.51,2.78-.91l22.26-9.67,28.72-12.31c2.3-.98,4.22-2.67,4.22-5.47Z"/>
    <path class="cls-1" d="M145.3,71.24c0,.98-.91,1.45-1.62,1.46s-1.56-.52-1.56-1.39l-.02-10.5c0-.95.59-1.57,1.43-1.69.73-.1,1.77.37,1.77,1.32v10.8Z"/>
    <path class="cls-1" d="M115.14,74.89c.73.8.77,1.75.08,2.37-.75.68-1.71.57-2.38-.17l-6.15-6.77c-.63-.7-.79-1.58-.1-2.33.58-.62,1.69-.65,2.36.09l6.18,6.81Z"/>
    <path class="cls-1" d="M173.78,77.17c-.59.66-1.78.29-2.17-.14-.52-.57-.59-1.46-.02-2.11l5.98-6.75c.63-.72,1.57-1.03,2.39-.37.73.59.7,1.66.03,2.41l-6.22,6.95Z"/>
    <path class="cls-1" d="M206.49,113.02c-.8.49-1.73.26-2.19-.34-.35-.46-.47-1.61.24-2.05l7.71-4.81c.7-.44,1.67.07,1.99.58.4.63.36,1.65-.36,2.09l-7.4,4.54Z"/>
    <path class="cls-1" d="M82.68,110.68c.73.44.66,1.54.31,2.07-.37.55-1.25.97-1.95.55l-6.95-4.16c-.75-.45-.99-1.18-.72-1.96.23-.65,1.29-1.3,2.09-.83l7.23,4.33Z"/>
    <path class="cls-1" d="M162.71,139.92c1.66-.24,2.84-1.7,2.91-3.34.02-.52-.22-1.16-.55-1.43s-1.05-.48-1.52-.39c-1.71.35-2.78,1.93-2.72,3.61.03.94.84,1.7,1.88,1.55ZM154.63,144.53c1.27-.64,2.09-1.85,2.12-3.22,0-.57-.37-1.27-.77-1.51-.44-.27-1.12-.33-1.61-.17-1.32.43-2.06,1.47-2.37,2.78-.18.77.02,1.55.62,2.01.49.38,1.29.48,2.01.12Z"/>
    <path class="cls-1" d="M149.04,122.49c-2.31,1.31-5.16.28-5.3-1.23-.05-.54.27-1.22.76-1.53,2.14-1.31,5.25-.48,5.36,1.18.04.57-.26,1.26-.83,1.58Z"/>
    <path class="cls-1" d="M149.07,128.67c-2.29,1.38-5.24.33-5.32-1.25-.03-.52.31-1.19.79-1.5,2.05-1.3,5.14-.5,5.31,1.15.06.56-.22,1.27-.78,1.6Z"/>
    <path class="cls-1" d="M137.39,143.19c.13.74-.15,1.49-.55,1.85-.5.43-1.31.64-2,.38-1.41-.53-2.42-1.87-2.45-3.4-.01-.59.43-1.29.8-1.54.48-.33,1.31-.41,1.86-.18,1.21.51,2.1,1.5,2.34,2.9Z"/>
    <path class="cls-1" d="M154.63,144.53c-.72.36-1.52.26-2.01-.12-.6-.46-.79-1.24-.62-2.01.3-1.31,1.05-2.35,2.37-2.78.49-.16,1.17-.09,1.61.17.4.24.78.94.77,1.51-.02,1.37-.85,2.58-2.12,3.22Z"/>
    <path class="cls-1" d="M162.71,139.92c-1.04.15-1.85-.61-1.88-1.55-.06-1.68,1.01-3.26,2.72-3.61.47-.1,1.19.12,1.52.39s.57.91.55,1.43c-.06,1.63-1.25,3.1-2.91,3.34Z"/>
  </g>
</svg>