<?xml version="1.0" encoding="UTF-8"?>
<svg id="Capa_1" data-name="Capa 1" xmlns="http://www.w3.org/2000/svg" xmlns:xlink="http://www.w3.org/1999/xlink" viewBox="0 0 283.46 283.46">
  <defs>
    <style>
      .cls-1 {
        fill: #fff;
      }

      .cls-2 {
        fill: url(#Degradado_sin_nombre_86);
      }
    </style>
    <linearGradient id="Degradado_sin_nombre_86" data-name="Degradado sin nombre 86" x1="39.89" y1="145.44" x2="243.24" y2="145.44" gradientUnits="userSpaceOnUse">
      <stop offset="0" stop-color="#d84565"/>
      <stop offset=".2" stop-color="#b25a81"/>
      <stop offset=".43" stop-color="#8f6d9d"/>
      <stop offset=".64" stop-color="#757cb0"/>
      <stop offset=".84" stop-color="#6684bc"/>
      <stop offset=".99" stop-color="#6188c1"/>
    </linearGradient>
  </defs>
  <rect class="cls-2" x="39.89" y="44.01" width="203.36" height="202.85" rx="12" ry="12"/>
  <g>
    <path class="cls-1" d="M83.21,131.02l25.47,9.49-6.07-15.03c-1.96.45-3.9-.37-4.7-2.2s-.17-3.97,1.58-4.98l-.24-.64c-6.36.71-12.47-2.27-15.74-7.8-2.75-4.64-3.07-10.28-.88-15.17,2.09-4.69,6.31-7.96,10.9-9.01,5.46-1.24,10.77.39,14.62,4.05,6.77,6.45,6.83,17.25.04,23.62l-.47.44c-.11.1.08.53.2.66,1.96-.41,3.88.62,4.61,2.43s.12,3.76-1.56,4.85l6.04,12.98c2.37-2.59,5.07-4.38,8.43-5.67-3.77-4.48-4.9-10.47-3.33-16.01-3.1-1.77-4.84-5.13-4.05-8.7.89-3.99,4.52-6.83,8.68-6.54,2.44.17,4.52,1.5,5.94,3.46,4.95-2.03,10.42-2.13,15.48.04,2.37-3.64,7.16-4.61,10.84-2.22,2.41,1.55,3.81,4.1,3.83,6.86.02,2.87-1.48,5.4-3.98,7.01,1.58,5.51.49,11.46-3.24,15.99l3.51,1.58c-1.28-3.56.66-7.13,4.21-7.85-1.1-1.66-1.28-3.5-.52-5.3.63-1.47,2.01-2.82,3.94-3.22-.95-1.61-1.17-3.34-.38-5.21.56-1.33,1.92-2.56,3.74-3.05-1.12-1.94-1.08-4.19.19-6,1.23-1.76,3.41-2.57,5.71-2l.83-9.32c.23-2.55,2.76-4.13,5.14-4.01s4.75,1.97,4.61,4.56l-.54,9.76c2.41-.13,4.56.85,5.56,2.75,1.1,2.08.82,4.56-.79,6.28,1.68.71,2.79,2.11,3.13,3.56.45,1.88,0,3.65-1.26,5.1,1.05.59,1.89,1.34,2.54,2.34,1.78-.3,3.53.22,4.84,1.38,1.33,1.18,2.04,2.86,1.93,4.79l-.16,2.83c-.08,1.49.56,2.57,1.78,3.43l3.22,2.27c1.42,0,2.64.05,3.84.92l16.93,12.32c1.01.74,1.69,1.5,1.73,2.71.03,1.01-.31,2.55-1.5,3.01l-16.73,6.54-.04,29.21c0,2.94-2.05,5.45-4.69,6.5l-16.49,6.55-43.37,17.64c-2.44.99-5.01.5-7.31-.45l-11.04-4.59-36.7-14.99-11.31-4.49c-3.02-1.2-4.32-4.1-4.32-7.22l.03-28.1-15.69-6.12c-1.35-.53-2.35-1.28-2.55-2.62-.22-1.48.4-2.61,1.59-3.48l21.18-15.47c.76-.55,1.81-.8,2.8-.43ZM183.52,98.55l.62-9.08c.1-1.42-1.33-2.43-2.48-2.4-1.49.04-2.33,1.15-2.44,2.59l-.68,8.41,4.98.48ZM95.09,100.67c1.46.59,2.75-.15,3.26-1.52.98-2.61,3.62-3.74,6.24-2.76.72.27,1.93.27,2.38-.38l1.36-1.96c-2.79-3.97-7.18-6.37-12.02-6.06-8.43.54-14.02,8.61-12.09,16.7l1.83.33c1.19.22,2.16-.4,2.57-1.53.98-2.69,3.73-3.92,6.47-2.83ZM91.03,104.5c-.95,2.4-3.31,3.55-5.78,3.02,3.1,6.37,10.69,9.28,17.18,6.55,6.63-2.79,9.84-10.41,7.28-17.25-1.35,2.15-3.68,2.95-6.04,2.02-1.32-.52-2.59.17-3.01,1.47-1.06,2.65-3.77,3.9-6.41,2.78-1.36-.58-2.66-.04-3.23,1.42ZM186.95,107.22c1.68.15,2.78-1.46,2.82-2.8s-.86-2.83-2.35-2.97l-12.94-1.22c-1.7-.16-2.83,1.64-2.75,3.01.1,1.66,1.28,2.73,2.92,2.88l12.3,1.1ZM123.1,110.61c1.65-3.55,4.09-6.25,7.32-8.17-1.34-1.58-3.18-2.36-5.17-2.04-1.76.28-3.36,1.4-4.23,3.15-1.29,2.57-.46,5.67,2.09,7.06ZM157.88,110.48c3.1-2.1,3.13-6.14.7-8.53-2.33-2.31-6.09-2.2-8.17.5,3.26,1.96,5.77,4.65,7.47,8.03ZM152.96,128.12c5.56-5.94,5.34-14.88-.29-20.69-4.51-4.65-11.21-6.27-17.45-4.34-4.93,1.52-8.69,5.1-10.4,9.98-2.07,5.89-.26,12.4,4.59,16.36,6.91,5.64,17.59,5.08,23.57-1.3ZM189.01,109.91l-10.46-.91-6.73-.73c-1.72-.19-3.14.8-3.46,2.45-.27,1.42.61,3.32,2.34,3.49l17.45,1.72c1.81.18,3.21-.89,3.48-2.6.23-1.48-.83-3.26-2.62-3.42ZM102.24,122.9l7.3-3.26c.87-.39.89-1.5.38-2.18-.49-.64-1.2-.54-2.08-.23l-1.25.44-1.03-2.29c-1.15.72-2.38,1.25-3.81,1.74l.84,2.4-1.47.67c-.83.38-1.28,1.1-.94,2.01.27.73,1.14,1.12,2.06.71ZM190.27,122.07l2.47-2.25c-.69-1.13-1.86-1.22-3.06-1.33l-21.65-2.05c-1.85-.18-3.2,1.56-3.2,3.15s1.16,3.08,2.93,3.26l9.61.98c1.53-1.85,3.91-2.68,6.14-1.88l2.78,1c1.52.55,2.75.26,4-.88ZM187.13,145.61l1.99,3.03c.78,1.19,2.04,1.81,3.39,1.6s2.33-1.17,2.75-2.53l1.23-3.9c.48-1.53,2.26-2.31,3.77-2.65l3.27-.74c1.18-.27,2.02-1.41,2.21-2.48.2-1.12-.32-2.4-1.3-3.09l-2.92-2.04c-1.29-.9-2.26-2.27-2.18-3.97l.18-3.79c.07-1.53-.64-2.94-1.89-3.47-1.44-.61-2.91-.35-4.03.7l-2.27,2.12c-1.32,1.23-3.24,1.75-4.95,1.14l-3.39-1.2c-1.33-.47-2.69-.08-3.55.84-.95,1.01-1,2.32-.48,3.6l1.31,3.23c.58,1.42.18,2.97-.79,4.12l-2.52,2.99c-.86,1.02-.98,2.36-.39,3.51.48.95,1.6,1.69,2.87,1.58l3.6-.32c1.56-.14,3.17.33,4.09,1.72ZM112.78,141.92c.61-1.92,1.31-3.36,2.43-4.94l-6.56-14.15-3.67,1.6,6.84,17.07c.18.19.77.43.97.41ZM176.76,129.71c-.41-1.19-.69-2.31-.55-3.5l-11.81-1.19c-1.76-.18-3.06,1.52-3.2,3-.14,1.56.83,3.34,2.59,3.53l14.14,1.56-1.18-3.39ZM160.68,147.59l5.45-1.74c.54-1.2.41-2.48-.06-3.69-2.12-5.41-6.76-9.49-12.3-11.22l-.82.74c3.5,4.18,5.63,9.04,6.35,14.4l1.38,1.51ZM122.18,145.44c.81-5.26,2.67-9.77,6.04-13.64l-.92-.73c-5.44,1.61-10.67,6.31-12.08,11.84l6.97,2.53ZM151.85,150.36l5.09-1.6c-.2-5.82-2.19-11.41-6.2-15.68-6.42,3.73-14.08,3.54-20.41.11-3.37,3.75-5.15,8.26-5.67,13.15l5.58,2.04c.65-3.46,2.56-6.4,5.63-8.09,3.24-1.79,7.04-1.69,10.22.25,3.44,2.1,5.42,5.78,5.77,9.82ZM119.37,172.13l21.16-17.02-58.32-21.42-21.27,15.51c-.37.27-.51.56-.41.91l10.49,4.04,29.32,11.52,16.82,6.96c.81.33,1.53.24,2.21-.51ZM174.16,143.37c-.88-2.33-.27-4.43,1.17-6.06l1.49-1.79-13.05-1.35c1.91,1.98,3.42,4.03,4.42,6.51.54,1.36.84,2.68.97,4.26l5-1.56ZM175.96,145.72l-9.46,2.95-20.14,6.42,21.2,17c.72.58,1.26.94,2.22.54l14.92-6.19,42.15-16.53-14.22-10.46-4.37-3.07c.29,3.14-1.32,5.9-4.33,6.52l-3.01.62c-.88.18-2,.72-2.28,1.64l-1.14,3.66c-.64,2.07-2.41,3.46-4.33,3.82-2.15.41-4.42-.19-5.6-2.04l-1.7-2.67c-.68-1.08-1.7-1.68-3.02-1.55l-3.43.34c-1.19.12-2.32-.49-3.45-1ZM149.36,151.18c-.12-2.9-1.14-5.46-3.14-7.35-3.03-2.86-7.54-3.02-10.67-.23-1.65,1.47-2.65,3.5-2.9,5.7l10.8,3.83,5.91-1.94ZM208.29,160.23l-16.89,6.65-20.53,8.37c-1.48.6-2.93.58-4.3-.29l-21.72-17.41v59.03s52.03-21.13,52.03-21.13l8.39-3.25c2-.7,3.02-2.46,3.02-4.57v-27.39ZM78.7,188.41c0,1.97,1.7,3.17,3.18,3.74l11,4.26,36.85,15.03,12.35,5.11v-58.95s-21.7,17.39-21.7,17.39c-1.28,1.03-3.02.78-4.44.22l-21.92-8.9-15.37-6.03.04,28.14Z"/>
    <path class="cls-1" d="M143.36,89.56l-4.73,2.09c-.94.41-2.07.05-2.78-.53s-1.16-1.6-1.01-2.59l.69-4.78-3.41-3.47c-.75-.76-.81-2.02-.45-3,.31-.83,1.15-1.55,2.22-1.76l4.7-.91,2-3.99c.53-1.05,1.5-1.74,2.63-1.78,1.18-.03,2.19.69,2.76,1.78l2.08,4,5.09,1c.96.19,1.69,1.19,1.88,1.88.29,1.04.05,2.15-.66,2.87l-3.27,3.31.79,5.04c.14.89-.42,1.91-.99,2.38-2.07,1.72-4.77-.34-7.52-1.55ZM142.5,87.09c.67-.33,1.21-.24,1.8.05l4.12,2c.16.08.64.13.69-.02l.19-.51-.94-5.64,4.02-4.22.05-.56c.01-.12-.3-.27-.44-.3l-5.59-.98-2.55-4.96c-.08-.15-.33-.38-.48-.44s-.53.2-.6.34l-2.2,4.44c-.15.3-.65.68-.96.73l-4.84.83c-.21.04-.52.22-.63.33s0,.63.15.77l3.3,3.24c.45.44.62.93.53,1.53l-.72,4.67c-.03.19.05.62.18.75.11.1.52.11.66.04l4.25-2.1Z"/>
    <path class="cls-1" d="M115.59,71.38c.5.79.49,1.63-.2,2.1s-1.61.34-2.1-.44l-5.3-8.55c-.37-.59.11-1.51.6-1.78.57-.32,1.43-.23,1.85.45l5.15,8.22Z"/>
    <path class="cls-1" d="M173.57,72.66c-.43.7-1.47.6-1.99.23-.51-.36-.71-1.19-.31-1.84l5.33-8.57c.36-.57,1.29-.57,1.8-.25.44.27.88,1.2.51,1.81l-5.34,8.62Z"/>
    <path class="cls-1" d="M205.51,104.22c-.67.49-1.45.32-1.92-.19-.42-.45-.56-1.46.08-1.94l7.65-5.64c.66-.49,1.62-.06,1.94.53s.18,1.4-.46,1.88l-7.28,5.36Z"/>
    <path class="cls-1" d="M144.71,61.98c0,.98-.53,1.56-1.34,1.6s-1.46-.6-1.46-1.49v-8.02c.02-.82.83-1.27,1.47-1.25.88.03,1.34.71,1.34,1.6v7.56Z"/>
    <path class="cls-1" d="M146.42,126.95c-1.47,1.84-3.88,2.49-5.83,1.13-1.9,1.31-4.2.75-5.66-.97-.28-.33-.49-.76-.48-1.2,0-.36.52-.83.95-.9,1.2-.19,1.8,2.54,4.05,1.13v-2.5c-1.04-.35-1.86-1.06-2.16-2.07s.42-1.95,1.37-2.28c1.31-.45,2.77-.46,4.04.07,1.15.48,1.55,1.76.91,2.82-.41.67-1.03,1.07-1.86,1.45v2.56c1.08.72,2.26.36,2.96-.67.33-.49,1.13-.64,1.61-.34.57.36.6,1.19.11,1.79Z"/>
    <path class="cls-1" d="M133.03,114.71c1.17-.42,2.29.34,2.57,1.35s-.26,2.21-1.32,2.54-2.11-.24-2.5-1.21c-.41-1.04.04-2.25,1.25-2.68Z"/>
    <path class="cls-1" d="M146.71,114.71c1.16-.39,2.22.29,2.57,1.22.4,1.06-.21,2.27-1.2,2.61-1.08.37-2.16-.08-2.56-1.14-.37-.99-.05-2.28,1.18-2.7Z"/>
    <path class="cls-1" d="M196.2,133.3c1.25,3.27-.59,6.71-3.68,7.79-3.07,1.07-6.65-.51-7.7-3.73s.68-6.38,3.68-7.49c2.94-1.08,6.48.25,7.7,3.43ZM190.56,138.95c1.66,0,2.88-1.1,3.33-2.29.57-1.51-.01-3.01-1.06-3.86-1.21-.98-2.73-1.06-4.03-.3-1.39.8-2.08,2.38-1.64,3.93.38,1.37,1.68,2.51,3.4,2.52Z"/>
    <path class="cls-1" d="M191.44,143.99c.54-.17,1.13.22,1.23.66.12.53-.16,1.11-.68,1.27-.41.13-1.02-.15-1.2-.54-.23-.49-.04-1.17.65-1.39Z"/>
    <path class="cls-1" d="M181.32,139c.54-.22,1.19.03,1.34.45.18.49-.04,1.15-.52,1.36-.36.16-1.06,0-1.26-.33-.29-.47-.22-1.21.44-1.47Z"/>
    <path class="cls-1" d="M194.53,125.87c.43-.31,1.25-.1,1.47.33.18.35.09.97-.31,1.31-.31.26-1.03.19-1.34-.13-.38-.39-.33-1.14.19-1.51Z"/>
    <path class="cls-1" d="M200.06,135.95c.51-.1,1.04.35,1.09.81.06.51-.27,1-.79,1.14-.39.1-1.01-.27-1.12-.62-.18-.6.16-1.2.82-1.33Z"/>
    <path class="cls-1" d="M183.01,128.18c.59-.39,1.26-.08,1.48.42.15.33-.08.98-.48,1.22-.33.2-.95.06-1.29-.33-.28-.3-.17-1,.3-1.31Z"/>
  </g>
</svg>