<?xml version="1.0" encoding="UTF-8"?>
<svg id="Capa_1" data-name="Capa 1" xmlns="http://www.w3.org/2000/svg" xmlns:xlink="http://www.w3.org/1999/xlink" viewBox="0 0 283.46 283.46">
  <defs>
    <style>
      .cls-1 {
        fill: #fff;
      }

      .cls-2 {
        fill: url(#Degradado_sin_nombre_95);
      }
    </style>
    <linearGradient id="Degradado_sin_nombre_95" data-name="Degradado sin nombre 95" x1="39.89" y1="145.44" x2="243.24" y2="145.44" gradientUnits="userSpaceOnUse">
      <stop offset="0" stop-color="#d84565"/>
      <stop offset=".2" stop-color="#b25a81"/>
      <stop offset=".43" stop-color="#8f6d9d"/>
      <stop offset=".64" stop-color="#757cb0"/>
      <stop offset=".84" stop-color="#6684bc"/>
      <stop offset=".99" stop-color="#6188c1"/>
    </linearGradient>
  </defs>
  <rect class="cls-2" x="39.89" y="44.01" width="203.36" height="202.85" rx="12" ry="12"/>
  <g>
    <path class="cls-1" d="M146.09,69.29c0,1.03-1.07,1.61-1.81,1.57-.79-.04-1.72-.66-1.72-1.6v-12.37c0-1.12.92-1.84,1.89-1.79,1.05.06,1.67.87,1.67,1.99l-.03,12.2Z"/>
    <path class="cls-1" d="M82.62,109.15c.9.43.88,1.63.57,2.29-.3.63-1.35,1.18-2.16.8l-11.13-5.19c-.92-.43-1.25-1.48-.9-2.27.41-.93,1.47-1.36,2.47-.89l11.16,5.26Z"/>
    <path class="cls-1" d="M182.38,79.45c-.59.92-1.83.75-2.41.33-.92-.67-.95-1.73-.38-2.63l6.11-9.62c.56-.89,1.89-.9,2.61-.32.81.65.84,1.66.24,2.59l-6.18,9.65Z"/>
    <path class="cls-1" d="M210.31,112.14c-.97.5-2.01.11-2.43-.65-.5-.91-.12-1.95.81-2.44l9.83-5.09c.94-.49,2.01-.27,2.51.71.39.78.15,1.87-.81,2.36l-9.91,5.11Z"/>
    <path class="cls-1" d="M109.93,72.86c.58.96.7,1.93-.12,2.63-.6.52-2.06.75-2.62-.17l-5.12-8.43c-.6-.99-.43-2.16.6-2.72,1.15-.62,1.98.03,2.63,1.09l4.62,7.6Z"/>
    <path class="cls-1" d="M142.08,105.16l-5.39-16.03c-.74-2.19-2.57-3.63-4.97-2.83-.08-2.15-1.47-3.67-3.57-4.09-4.66-.93-11.87,1.58-11.78,6.16.01.73.43,1.48.8,2.21l-4.57,1.64c-1.5-5.4-10.25-3.84-13.93-.21-1.54,1.52-1.66,3.69-.47,5.42-1.71.57-3.08,2.39-2.42,4.29l6.25,18.12c.58,1.68,2.89,2.25,4.36,1.7l33.31-12.28c1.53-.56,2.93-2.47,2.38-4.11ZM128.8,85.97c.95,2.54-9.26,5.18-9.57,2.28-.25-2.38,8.7-4.62,9.57-2.28ZM109.73,92.64c1.26,2.33-8.43,5.4-9.42,2.75-.92-2.47,8.12-5.15,9.42-2.75ZM98.61,100.48c3.15-1.64,5.39-.7,8.72-1.88,1.73-.61,3.32-1.44,4.47-2.99l9.01-3.17c3.28.34,6.21-.71,8.94-2.33.63-.37,3.17-1.16,3.62-.83.23.16.39.68.4,1.1l-34.45,12.43c-.4-.71-.61-1.43-.7-2.34ZM138.58,106.52l-33.07,12.18c-.58.11-.9-.1-1.06-.58l-4.27-12.43,34.8-12.55,4.14,12.26c.15.43-.02.84-.54,1.13Z"/>
    <path class="cls-1" d="M135.82,142.45c-3.25,2.46-9.4,2.18-11.81-.82-1.76-2.19-.94-5.39,1.51-6.74,4.83-2.65,11.68-.91,12.18,3.5.18,1.62-.54,3.05-1.88,4.06ZM134.93,138.91c0-.36-.37-1.09-.74-1.31-3.6-2.08-8.34-.53-8.37,1.31,0,.37.42,1.06.84,1.29,3.62,1.99,8.3.4,8.28-1.29Z"/>
    <g>
      <path class="cls-1" d="M137.69,138.39c-.5-4.4-7.35-6.15-12.18-3.5-2.45,1.35-3.28,4.55-1.51,6.74,2.41,3,8.57,3.27,11.81.82,1.34-1.01,2.06-2.44,1.88-4.06ZM126.66,140.21c-.42-.23-.84-.92-.84-1.29.03-1.85,4.77-3.39,8.37-1.31.38.22.74.95.74,1.31.02,1.7-4.65,3.29-8.28,1.29Z"/>
      <path class="cls-1" d="M232.61,152.8l-18.57-14.46c-1.22-1.16-2.56-1.15-4.04-.67l-11.55,3.79-.02-36.51c0-1.36-1.26-2.31-2.3-2.72l-5.21-2.06c-1.12-4.81-7.47-5.97-12.03-4.41l-3.64-1.42c-1.37-5.37-9.41-6.4-13.93-3.41-1.61,1.07-2.38,2.72-2.37,4.59l-6.87,3.57c-1.11.58-1.84,1.52-1.84,2.86v26.55c-1.63-.93-3.19-1.35-4.95-1.37l-9.46-4.31c-2.11-3.22-6.89-3.72-10.49-2.44-1.2.51-2.15,1.21-2.95,2.28l-7.97,3.48c-3.14-.16-6.53.76-7.85,3.61l-4.02,1.92c-1.12.92-1.5,2.13-1.5,3.56v9.4s-22.1-7.18-22.1-7.18c-1.26-.41-2.23,0-3.2.77l-18.07,14.18c-1.12.88-1.85,1.84-1.83,3.32.01.95.52,2.66,1.76,3.08l18.46,6.26.03,29.47c0,3.41,2.43,6.16,5.5,7.24l13.91,5.44,44.76,17.78,7.66.47,59.95-23.67c3.34-1.27,5.24-4.41,5.24-7.98v-28.57s17.95-6.03,17.95-6.03c1.45-.49,2.56-1.29,2.83-2.75.26-1.4-.12-2.74-1.3-3.66ZM195.53,115.09v6.32s-12.61,6.6-12.61,6.6l-.06-14.12,12.64-6.63.03,7.83ZM195.52,124.75v17.68s-12.6,4.13-12.6,4.13l-.05-15.15,12.65-6.65ZM178.61,99.46c3.81-2.31,9.34-.74,9.44,1.57.09,2.26-5.28,3.85-9.25,1.77-.62-.32-1.14-1.03-1.19-1.59-.06-.62.38-1.39,1-1.76ZM171.32,93.67c.58.35.98,1.04.99,1.58.07,2.32-5.38,3.89-9.25,1.77-.61-.34-1.11-1.04-1.16-1.58-.21-2.39,5.47-4.15,9.42-1.77ZM159.92,98.35c3.47,4.15,12.35,3.86,14.98-.96l.98.43c-1.83,2.19-1.52,5.32.73,7.19,3.68,3.06,11.54,2.75,13.97-1.83l3.45,1.44-12.61,6.63-26.01-10.52,4.53-2.39ZM153.22,103.1l26.74,10.82-.06,14.19-26.69-10.93v-14.09ZM161.38,139.08l-.09-2.66c-.03-.98-.58-1.9-1.43-2.34l-6.65-3.12v-10.55s26.69,10.96,26.69,10.96v15.35s-18.53-7.64-18.53-7.64ZM176.63,148.59l-15.31,4.97v-11.28s15.31,6.31,15.31,6.31ZM149.38,132.16c.23,1.67-4.29,3.51-8.18,1.45-.42-.22-.84-.89-.82-1.26.16-2.97,8.61-2.99,9-.19ZM125.41,123.63c3.62-1.99,8.12-.43,8.16,1.33.04,1.65-4.44,3.28-8.16,1.33-.44-.23-.86-.93-.87-1.33-.01-.42.4-1.07.86-1.33ZM117.44,130.04c.37.21.76.8.8,1.13.27,1.89-4.64,3.54-8.32,1.45-.42-.24-.84-.91-.84-1.28,0-1.74,4.66-3.38,8.36-1.3ZM106.65,133.03c1.96,3.97,8.2,4.42,12.02,2.24,1.46-.83,2.27-2.26,2.35-3.76.08-1.63-.67-3.03-2.2-4l3.09-1.42c1.4,4.24,7.52,4.89,11.44,3.13,1.25-.69,2.2-1.51,2.84-2.98l4.16,1.94c-1.82.94-2.63,2.41-2.68,4.18-.05,1.68.93,3.2,2.55,4.05,2.66,1.39,5.84,1.46,8.6.31,1.34-.66,2.41-1.42,3.07-3.04l4.66,2.17-24.57,11.1-27.63-12.69c.73-.57,1.53-.92,2.31-1.23ZM104.03,145.61l-.04-8.19,26.44,12.11v4.71M59.41,156.25c-.22-.08-.55-.44-.52-.61.02-.18.22-.5.42-.66l18.69-14.7,63.89,20.8-18.01,16.96-13.51-4.58-50.95-17.21ZM143.23,222.87l-50.47-20.05-10.96-4.21c-1.81-.95-2.75-2.73-2.75-4.8v-27.76s43.43,14.73,43.43,14.73c1.61.44,3.03.05,4.11-1.17l16.65-15.6v58.87ZM133.41,155.21v-5.63s24.97-11.3,24.97-11.3v16.2s-13.58,4.44-13.58,4.44l-11.39-3.71ZM207.12,198.81l-60.91,24.07v-59.02s17.64,16.44,17.64,16.44c1.09.72,2.24.82,3.53.42l42.75-14.46v27.96c0,1.96-1.18,3.87-3,4.59ZM230.72,156.18l-6.97,2.3-57.92,19.59-11.27-10.55-6.88-6.39,38.87-12.6,25.15-8.2,19.23,14.96c.22.17.01.85-.2.9Z"/>
    </g>
  </g>
</svg>