<?xml version="1.0" encoding="UTF-8"?>
<svg id="Capa_1" data-name="Capa 1" xmlns="http://www.w3.org/2000/svg" viewBox="0 0 1118.33 591.58">
  <defs>
    <style>
      .cls-1 {
        fill: #d84565;
      }

      .cls-2 {
        fill: #6188c1;
      }
    </style>
  </defs>
  <g>
    <path class="cls-1" d="M232.06,335.88c116.29-6.59,122.44,167.31,7.75,169.57-113.76,2.24-117.15-163.37-7.75-169.57ZM230.04,360.84c-39.53,4.18-60.4,43.21-49.46,79.86,15.2,50.92,91.43,53.77,111.5,5.14,18.36-44.49-13.34-90.15-62.04-85Z"/>
    <path class="cls-1" d="M842.66,334.97c116.29-6.59,122.44,167.31,7.75,169.57-113.76,2.24-117.15-163.37-7.75-169.57ZM840.64,359.92c-39.53,4.18-60.4,43.21-49.46,79.86,15.2,50.92,91.43,53.77,111.5,5.14,18.36-44.49-13.34-90.15-62.04-85Z"/>
    <path class="cls-2" d="M364.02,338.75l57.62,128.72,54.63-128.72c3.98-.25,25.78-.91,26.79,2.43-8.96,23.26-18.94,46.12-28.77,69.01-17.06,39.77-35.13,88.35-54.97,125.87-14.12,26.7-36.28,32.48-65.02,26.19l2.33-23.91c1.4-2.14,11.1.93,14.07,1.04,25.43,1,29.26-21.63,37.2-40.28l-71.51-156.27-.17-2.2c8.98-2.86,18.5-2.1,27.8-1.87Z"/>
    <path class="cls-2" d="M1027.77,400.52l49.38-61.01c8.96-2.37,19.19-1.13,27.12,4.04l-59.54,76.43,59.94,79.39c-8.54,3.56-18.34,7.04-27.52,4.11l-48.9-62.99-49.48,63.41c-9.05,1.42-19.02.26-26.84-4.64l1.41-4.8,58.24-74.31-58.31-73.59-.03-3.02c8.04-5.3,18.17-5.87,27.53-4.46l47,61.43Z"/>
    <path class="cls-2" d="M70.36,284.64v53.95h56.96v22.98h-56.96v85.41c0,4.14,4.02,15.82,6.56,19.42,6.12,8.68,20.57,12.83,30.8,11.92,9.08-.8,16.81-6.12,25.6-7.87-.21,5.53,8.21,20.23,6.88,24.31-1.06,3.22-23.23,8.96-27.48,9.54-27.44,3.73-55.67-6.59-65.38-34.31-.82-2.34-3.96-13.34-3.96-15.02v-93.41H15.4v-22.98h27.98v-46.45l26.98-7.49Z"/>
    <path class="cls-2" d="M586.04,185.73c12.37,2.21,26.03,10.64,29.98,22.98l-18.32,4.9-14.81-24.76-4.85.89c4.62,8.5,11.68,15.56,13.9,25.38l-16.72,5.41c-9.25-20.49-43.23-17.47-47.16,5.17l-15.98-4.51c-1.42-.8-.86-1.35-.58-2.5,2.18-8.95,11.11-20.93,17.55-27.46l-5.83-2.37-17.14,29.4-18.99-4.57c3.18-10.04,12.15-19.44,21.61-23.84,1.95-.91,12.37-3.69,12.35-4.62-18.77-15.17-13.63-37.98.51-54.46,14.46-16.85,37.85-18.39,57.16-9.16l14.29,10.17c3.86-7.03,2.73-14.28-6.48-14.07-2.07.05-4.25,1.22-5.95,1.06-1.01-.09-8.37-3.74-8.52-4.54,15.03-25.08,49.54,1.82,30.5,23.59-1.2,1.38-3.97,2.21-4.44,3.63-.56,1.72,2.79,11.49,2.78,14.92-.02,11.36-7.61,21.43-14.88,29.35ZM533.79,143.95c-6.73,1.99.47,12.65,5.3,7.34,3.11-3.42-.15-8.86-5.3-7.34ZM573.8,145.03c-4.75-4.59-11.07,3-6.34,6.83,4.41,3.57,9.49-3.79,6.34-6.83ZM568.69,158.12c-15.86-15.98-45.47,2.21-33.46,20.96,5.71,8.91,22.78,9.85,31.15,4.5,9.52-6.08,10.09-17.61,2.3-25.46Z"/>
    <path class="cls-2" d="M710.88,99.91c-2.11,12.95-8.95,27.7-17.4,37.89-3.81,4.6-18.83,16.96-20.3,20.67-.43,1.09-1.02,3.85,1.28,3.29l15.03-13.03c5.38,3.44,5.39,9.58,3.02,15.08-1.6,3.72-14.75,23.41-19.1,17-1.15-1.69-.52-11.98-4.43-14.62-.95-.59-15.12,4.32-16,.05-.41-1.98,13.19-20.07,13.7-26.12.27-3.2-2.01-4.64-4.79-2.68l-13.92,26.31c-6.26-1.71-7.78-8.04-6.98-13.98-3.61-.24-16.58,4.86-18.55,2.06-2.3-3.26,6.22-19.1,8.74-22.37,5.16-6.7,9.1-5.79,16.31-8.67,6.15-14.51,11.96-30.28,24.13-40.88,11.66,9.25,24.6,16.56,39.26,20ZM678.64,101.17c-16.8.46-12.62,28.04,4.53,21.31,11.43-4.48,7.67-21.64-4.53-21.31Z"/>
    <path class="cls-2" d="M570.81,42.12c5.7,5.52-7.36,11.5-8.56,15.46-1.55,5.14,4.43,14.2.4,17.37-5.62,4.42-12.02-4.41-17.02-4.09-4.78.31-10.95,9.94-16.65,4.59-3.34-4.63,1.99-12.86.95-16.85-.86-3.28-11.59-7.08-10.68-12.98,1.07-6.98,12.83-3.88,16.43-6.62,3.64-2.77,3.74-19.2,12.96-13.15,3.29,2.15,4.34,11.74,8.44,13.54,2.91,1.28,11.54.61,13.74,2.74Z"/>
    <path class="cls-2" d="M711.84,95.71c-1.16.74-8.89-.97-10.2-1.8s-1.86-4.79-4.31-6.93c-6.55-5.72-18.38-1.74-22.27-11.49.33-1.91,16.8-13.83,19.61-15.43,11.35-6.49,16.95-6.32,18.27,8.31.33,3.61.48,26.33-1.1,27.34Z"/>
    <path class="cls-2" d="M536.07,115.8c-3.41-.74-6.29,3.53-8.73,3.89-2.86.42-7.11-4.94-12.78.09-6.17,5.48.65,10.49.37,12.33l-4.89,8.63c-2.57,1.78-7.87-5.67-8.68-7.71-7.37-18.43,12.16-36.86,28.65-25.65,1.43.97,7.62,6.66,6.06,8.42Z"/>
    <path class="cls-2" d="M724.19,160.52c-3.39-3.4-.79-8.28,2.43-10.58,2.8-2,17.94-9.27,21.04-9.94,9.5-2.04,11.45,6.69,4.6,11.59-2.09,1.49-19.8,9.57-22.07,9.97-1.77.31-4.72.24-6-1.05Z"/>
    <path class="cls-2" d="M458.83,62.04c2.08-.32,4.76.94,6.35,2.25.83.69,12.25,15.12,12.8,16.17,2.62,5.03.75,10.81-5.37,10.47-5.63-.31-13.51-15.1-18.36-18.72-2.87-3.57.47-9.55,4.58-10.18Z"/>
    <path class="cls-2" d="M650.06,170.82l4,.37c4.67,9.2-13.54,28.65-21.6,20.59-4.28-4.27.41-19.64,4.13-23.95,2.13-2.47,7.64-4.74,8.36-.45.28,1.66-6.93,6.09-4.47,11.34,2.74,5.84,10.23-3.67,9.58-7.91Z"/>
    <path class="cls-2" d="M608.72,34.08c13.33-4.08,5,19.02-.42,20.62-11.72,3.45-3.28-19.48.42-20.62Z"/>
    <path class="cls-2" d="M556.06,173.74l7,1.02-.45,3.05-1.21.79c-3.06.98-5.89-.72-8.73-.75-1.68-.02-8.91,2.61-9.6-.61-.61-2.84,6.22-2.3,6.98-5,.65-1.76-5.16-3.42-5.88-6.18-1.92-7.42,20.23-9.04,17.73-.01-.9,3.23-6.98,3.51-5.85,7.7Z"/>
  </g>
  <path class="cls-2" d="M813.25,218.86c-23.74-10-48.56-29.73-71.9-39.01-2.34-.93-4.28-1.53-6.87-1.11l-192.65,58.77-127.69-38.79c5.06-17.52-19.47-27.19-23.99-7.98l-4.92-1.07c.21-9.31,8.5-15.37,17.44-14.99,11.51.49,14.89,8.57,18.13,18.09,3.69.9,22.51-4.7,25.07-7.3.91-.93,1.36-4.39,2.77-4.73,1.6-.39,5.63,8.03,9.21,9.76,12.17,5.89,24.1-6.61,19.27-18.75,6.52,1.49,17.35-2.41,13.46-10.98-2.4-5.29-12.24-2.22-12.5-9.6-.08-2.2,1.55-2.96,1.83-4.17.69-2.95-2.76-6.39-5.52-7.01-1.44-.32-9.76-.5-16.15-.45l-29.45-18.49c-.64-1.3-1.7-1.94-3.18-2.23-5.05-.98-28.28,4.71-34.21,6.7-19.04,6.38-23.98,19.06-19.97,38.47.62,3.01,3.42,8.02,3.49,10.42.08,2.61-3.92,7.06-3.76,10.32-8.68-1.44-18.13-7.82-27-5.52-21.7,12.82-44.96,23.46-66.6,36.32-7.77,4.62-14.56,8.94-4.59,16.92l65.23,23.21v57.44c4.14,3.65,9.35,1.53,13.99.5v-51.95l120.44,43c1.76.09,3.04-.69,4.44-1.59,15.97-10.23,32.16-27.77,48.01-38.92l3-1.49v178.32c0,4.35,6.15,18.1,8.58,22.4,43.28,76.63,203.88,53.96,200.33-44.42-2.21-61.41-69.98-90.66-123.98-80.89-22.27,4.03-43.05,15.57-57.94,32.49v-108.89l57.45,43.05,119.44-43.05v51.45c1.37,2.22,10.71,2.01,12.06,1.06l1.1-57.34,67.72-24.71c5.01-3.42,5.73-9.78.42-13.26ZM425.53,128.03l23.59,14.81c-.13.42-.32.77-.69.97-3.27,1.77-22.55,6.87-27.05,7.73-.9.17-2.46.61-3.13.13l-4.98-19.32c.48-1.87,7.69-2.09,12.26-4.33ZM400.89,134.98c1.45-.05,1.51.34,2.05,1.51.8,1.74,3.31,12.95,2.74,14.24-5.47,6.22-14.47,6.43-21.03,11-7.55-13.22,1.63-26.23,16.24-26.76ZM473.09,288.13l-3.35.48-176.51-64.41,53.02-29.93,3.38-.6,173.45,53.01-49.99,41.44ZM626.81,360.86c33.95-3,75.53,14.31,81.89,51.41,8.21,47.85-40.86,75.92-83.06,73.04-96.78-6.6-84.1-116.9,1.17-124.45ZM615.39,288.62c-2.81.53-4.75-1.54-6.84-3.01-15.86-11.21-31.47-26.04-46.49-38.44l172.56-54.18,57.29,31.7-176.52,63.93Z"/>
</svg>